<?xml version="1.0" encoding="UTF-8" standalone="no"?>
<!-- Created with Inkscape (http://www.inkscape.org/) -->

<svg
   xmlns:dc="http://purl.org/dc/elements/1.1/"
   xmlns:cc="http://creativecommons.org/ns#"
   xmlns:rdf="http://www.w3.org/1999/02/22-rdf-syntax-ns#"
   xmlns:svg="http://www.w3.org/2000/svg"
   xmlns="http://www.w3.org/2000/svg"
   xmlns:sodipodi="http://sodipodi.sourceforge.net/DTD/sodipodi-0.dtd"
   xmlns:inkscape="http://www.inkscape.org/namespaces/inkscape"
   width="210mm"
   height="297mm"
   viewBox="0 0 210 297"
   version="1.1"
   id="svg8"
   sodipodi:docname="Nuevo documento 1.2018_04_02_19_15_24.0.svg"
   inkscape:version="0.92.2 (5c3e80d, 2017-08-06)">
  <defs
     id="defs2" />
  <sodipodi:namedview
     id="base"
     pagecolor="#ffffff"
     bordercolor="#666666"
     borderopacity="1.0"
     inkscape:pageopacity="0.0"
     inkscape:pageshadow="2"
     inkscape:zoom="0.49497475"
     inkscape:cx="128.58848"
     inkscape:cy="598.7223"
     inkscape:document-units="mm"
     inkscape:current-layer="g1424"
     showgrid="false"
     inkscape:snap-global="false"
     inkscape:window-width="1366"
     inkscape:window-height="705"
     inkscape:window-x="-8"
     inkscape:window-y="-8"
     inkscape:window-maximized="1" />
  <metadata
     id="metadata5">
    <rdf:RDF>
      <cc:Work
         rdf:about="">
        <dc:format>image/svg+xml</dc:format>
        <dc:type
           rdf:resource="http://purl.org/dc/dcmitype/StillImage" />
      </cc:Work>
    </rdf:RDF>
  </metadata>
  <g
     inkscape:groupmode="layer"
     id="layer2"
     inkscape:label="gizmo"
     style="display:inline"
     sodipodi:insensitive="true">
    <g
       id="g1424">
      <path
         sodipodi:nodetypes="csscscscsccscccccsscccscccccscssssssssssssssc"
         inkscape:connector-curvature="0"
         id="path1088"
         d="m 41.556085,172.74486 c 0,0 -11.35463,0.77662 -8.41466,-8.57782 2.93996,-9.35443 16.70434,-20.04521 25.65787,-23.38608 8.95353,-3.34087 17.37252,-3.4745 17.37252,-3.4745 0,0 3.55986,-2.92619 18.48993,-3.87113 14.930045,-0.94494 32.127965,2.45685 35.529755,3.77976 3.40178,1.32292 6.99256,-1.70089 14.74107,-0.37798 7.74851,1.32292 13.04018,11.90625 17.57589,13.60715 4.53572,1.70089 9.26042,1.13393 13.04018,5.10268 3.77976,3.96875 4.7247,8.12649 4.53571,10.96131 -0.18898,2.83482 5.85863,9.63839 6.4256,11.33928 0.56696,1.7009 -4.91369,2.26786 -9.82738,1.13393 -4.91369,-1.13393 -5.10268,-1.32291 -5.10268,-1.32291 0,0 -12.28423,3.02381 -18.14286,1.32291 -5.85863,-1.70089 -17.76488,-2.83482 -17.76488,-2.83482 l 3.96875,-4.53571 -5.85863,-1.7009 c 0,0 1.70089,9.07143 0,13.22917 -1.70089,4.15774 -2.07887,6.04762 -7.9375,5.29167 -5.85863,-0.75595 -3.59077,-3.59077 -3.59077,-3.59077 0,0 -2.26786,-1.32292 -2.07887,-2.64584 l 0.18899,-1.32291 c 0,0 -0.75596,4.15773 -5.29167,4.34672 -4.53571,0.18899 -5.85863,-5.48065 -5.85863,-5.48065 0,0 -1.32292,-2.07887 0.37797,-4.53572 1.7009,-2.45684 2.83483,-2.45684 2.83483,-2.45684 l 1.32291,-1.32292 -3.21279,-6.4256 c 0,0 -8.31547,1.13393 -13.040175,1.32292 l -4.72471,0.18899 c 0,0 -13.22917,7.9375 -14.93006,8.12649 -0.85776,0.0953 3.37886,0.19471 5.63514,3.54871 1.15066,1.71047 1.95548,2.8801 2.28171,4.97369 0.15167,0.97331 0.58915,2.95696 -0.52024,4.88193 -0.40533,0.70331 -0.90413,1.59237 -4.84103,2.67508 -2.89639,0.79654 -5.0799,-4.00144 -9.28285,-6.15079 -2.90847,-1.48737 -8.16342,-3.38666 -12.83887,-5.99685 -0.97651,-0.54516 -0.89161,-3.1009 -1.7207,-2.78219 -0.99973,0.38431 -6.56496,5.27177 -8.27812,9.82758 -1.04933,2.79047 0.47478,4.6156 -0.0135,10.21679 -0.20028,2.29753 -1.72767,1.03084 -6.35583,1.36385 -1.89239,0.13616 -1.90584,-1.74549 -3.92325,-2.2773 -3.14582,-0.82929 -1.0467,-2.75164 -3.83559,-3.80967 -1.87422,-0.71102 -0.35001,-4.25993 0.65813,-8.16819 1.23224,-4.77707 4.9766,-9.81733 4.9766,-9.81733"
         style="display:inline;opacity:1;fill:#ffffff;fill-opacity:1;stroke:none;stroke-width:2.60500002;stroke-linecap:round;stroke-linejoin:round;stroke-miterlimit:4;stroke-dasharray:none;stroke-dashoffset:0;stroke-opacity:1;paint-order:fill markers stroke" />
      <path
         inkscape:connector-curvature="0"
         id="path1091"
         d="m 154.87807,173.92603 c 0,0 0.96856,-1.37016 2.55133,-2.10249 1.58278,-0.73233 2.9057,-0.99219 2.9057,-0.99219 0,0 0.0472,1.32292 -0.70871,2.26786 -0.75595,0.94494 -1.22842,1.01581 -2.03162,1.22842 -0.8032,0.21261 -2.7167,-0.4016 -2.7167,-0.4016 z"
         style="display:inline;opacity:1;fill:#ffffff;fill-opacity:1;stroke:none;stroke-width:1.5;stroke-linecap:round;stroke-linejoin:round;stroke-miterlimit:4;stroke-dasharray:none;stroke-dashoffset:0;stroke-opacity:1;paint-order:fill markers stroke" />
      <path
         inkscape:connector-curvature="0"
         id="path1093"
         d="m 168.29622,168.35088 c 0,0 1.08668,-1.01581 2.62221,-1.18118 1.53553,-0.16536 3.85063,0.30711 3.85063,0.30711 l -1.39378,1.37016 -1.79539,0.77958 -1.27567,-0.16537 c 0,0 -1.2048,-0.56696 -1.29929,-0.61421 -0.0945,-0.0473 -0.70871,-0.49609 -0.70871,-0.49609 z"
         style="display:inline;opacity:1;fill:#ffffff;fill-opacity:1;stroke:none;stroke-width:1.5;stroke-linecap:round;stroke-linejoin:round;stroke-miterlimit:4;stroke-dasharray:none;stroke-dashoffset:0;stroke-opacity:1;paint-order:fill markers stroke" />
      <path
         inkscape:connector-curvature="0"
         id="path1095"
         d="m 162.29942,164.06682 -1.50339,2.7061 2.73951,-0.26727 1.83748,-1.26953 c 0,0 -0.10023,-0.26727 -0.23386,-0.30068 -0.13364,-0.0334 -1.63703,-0.53453 -1.63703,-0.53453 z"
         style="display:inline;opacity:1;fill:#ffd5e8;fill-opacity:1;stroke:none;stroke-width:1.5;stroke-linecap:round;stroke-linejoin:round;stroke-miterlimit:4;stroke-dasharray:none;stroke-dashoffset:0;stroke-opacity:1;paint-order:fill markers stroke" />
      <path
         inkscape:connector-curvature="0"
         id="path1097"
         d="m 139.07394,175.2017 4.7247,-2.55134 -1.98437,-2.92932 -1.79539,1.98438 -1.6064,3.49628 z"
         style="display:inline;opacity:1;fill:#ffd5e8;fill-opacity:1;stroke:none;stroke-width:1.5;stroke-linecap:round;stroke-linejoin:round;stroke-miterlimit:4;stroke-dasharray:none;stroke-dashoffset:0;stroke-opacity:1;paint-order:fill markers stroke" />
      <path
         inkscape:connector-curvature="0"
         id="path1099"
         d="m 176.39909,174.16227 c 0,0 5.66964,3.59077 6.2366,3.59077 0.56697,0 3.87426,0.47247 3.87426,0.47247 l -2.74033,-3.87425 -3.2128,-5.95313 -1.41741,-0.47247 z"
         style="display:inline;opacity:1;fill:#ffd5e8;fill-opacity:1;stroke:none;stroke-width:1.5;stroke-linecap:round;stroke-linejoin:round;stroke-miterlimit:4;stroke-dasharray:none;stroke-dashoffset:0;stroke-opacity:1;paint-order:fill markers stroke" />
      <path
         inkscape:connector-curvature="0"
         id="path1101"
         d="m 156.05199,172.92012 c 0,0 -0.0334,0.63477 0.33409,0.96886 0.36749,0.33408 0.96885,0.43431 0.96885,0.43431 l 1.60362,-0.46772 1.00226,-1.06908 c 0,0 0.16704,-0.73499 -0.36749,-1.20271 -0.53454,-0.46772 -0.63477,-0.46772 -0.63477,-0.46772 l -1.83748,0.86862 z"
         style="display:inline;opacity:1;fill:#a0be7e;fill-opacity:1;stroke:none;stroke-width:1.5;stroke-linecap:round;stroke-linejoin:round;stroke-miterlimit:4;stroke-dasharray:none;stroke-dashoffset:0;stroke-opacity:1;paint-order:fill markers stroke" />
      <path
         inkscape:connector-curvature="0"
         id="path1103"
         d="m 169.81637,167.64155 c 0,0 -0.30067,0.66817 -0.16704,1.06908 0.13363,0.4009 0.66818,0.66817 0.66818,0.66817 l 1.87088,0.13363 1.20271,-0.73499 c 0,0 0.20046,-0.90203 -0.16704,-1.23612 -0.36749,-0.33408 -0.60136,-0.53454 -0.80181,-0.50113 -0.20045,0.0334 -2.13815,0.3675 -2.13815,0.3675 z"
         style="display:inline;opacity:1;fill:#a0be7e;fill-opacity:1;stroke:none;stroke-width:1.5;stroke-linecap:round;stroke-linejoin:round;stroke-miterlimit:4;stroke-dasharray:none;stroke-dashoffset:0;stroke-opacity:1;paint-order:fill markers stroke" />
      <path
         inkscape:connector-curvature="0"
         id="path1105"
         d="m 143.79864,171.42194 c 0,0 6.80357,-3.02381 7.74851,-1.7009 0.94494,1.32292 0,4.72471 1.13393,4.72471 1.13393,0 3.49628,0.47247 4.91369,0.18899 1.41741,-0.28348 2.83482,0.18898 3.96875,0.75595 1.13393,0.56696 2.47315,0.73667 2.60679,-0.19878 0.13363,-0.93544 -0.33409,-4.34312 0.60135,-3.94222 0.93544,0.4009 2.53906,3.14042 3.34087,2.53906 0.80181,-0.60136 1.34124,-3.45349 2.61691,-3.50074 1.27567,-0.0473 2.4096,-1.08668 2.97657,-1.41741 0.56696,-0.33073 1.03943,-1.41741 1.03943,-1.41741 0,0 1.08668,-1.98438 0.99219,-3.77976 -0.0945,-1.79539 -1.27745,-4.25042 -1.27745,-5.58677 0,-1.33635 -1.60361,-3.94222 -1.60361,-3.94222 0,0 4.40994,2.40542 5.74629,4.87767 1.33635,2.47224 1.87089,4.34312 1.67043,5.94674 -0.20045,1.60362 -3.20723,8.419 -3.20723,8.419 l 0.0668,1.46998 8.28535,4.34313 -8.75307,0.0668 -4.87767,-1.67043 -9.09004,2.04558 c 0,0 -7.46503,-0.18899 -7.84301,-0.18899 -0.37797,0 -6.42559,-0.75595 -6.42559,-0.75595 l -11.62277,-2.26786 4.15774,-2.17336 3.02381,-1.88988 z"
         style="display:inline;opacity:1;fill:#ffdbba;fill-opacity:1;stroke:none;stroke-width:1.5;stroke-linecap:round;stroke-linejoin:round;stroke-miterlimit:4;stroke-dasharray:none;stroke-dashoffset:0;stroke-opacity:1;paint-order:fill markers stroke" />
      <path
         inkscape:connector-curvature="0"
         id="path1109"
         d="m 78.786735,138.53801 c 0,0 1.70089,2.26785 6.99256,-0.18899 5.29167,-2.45684 4.53572,-4.53571 4.53572,-4.53571 0,0 -6.4256,0.75595 -7.37054,0.94494 -0.94494,0.18899 -3.96875,1.88988 -3.96875,1.88988 l -1.70089,1.13393 z"
         style="display:inline;opacity:1;fill:#ffdbba;fill-opacity:1;stroke:none;stroke-width:1.5;stroke-linecap:round;stroke-linejoin:round;stroke-miterlimit:4;stroke-dasharray:none;stroke-dashoffset:0;stroke-opacity:1;paint-order:fill markers stroke" />
      <path
         inkscape:connector-curvature="0"
         id="path1113"
         d="m 104.36876,133.43105 -11.893505,-0.13364 0.53454,2.40543 c 0,0 2.53906,3.0736 3.60814,2.80633 1.06908,-0.26727 3.875415,-1.73725 4.543585,-1.87089 0.66818,-0.13363 3.20724,-3.20723 3.20724,-3.20723 z"
         style="display:inline;opacity:1;fill:#ffdbba;fill-opacity:1;stroke:none;stroke-width:1.5;stroke-linecap:round;stroke-linejoin:round;stroke-miterlimit:4;stroke-dasharray:none;stroke-dashoffset:0;stroke-opacity:1;paint-order:fill markers stroke" />
      <path
         inkscape:connector-curvature="0"
         id="path1115"
         d="m 66.880485,181.06033 c 0,0 -1.70089,-6.99256 -2.83482,-7.55952 -1.13393,-0.56696 3.77976,-3.02381 5.66964,-5.10268 1.88988,-2.07887 2.64584,-3.77977 1.88988,-3.77977 -0.75595,0 -10.01637,5.85864 -10.01637,5.85864 l -3.21279,1.88988 -0.75596,2.26786 -0.37797,3.21279 3.40178,1.7009 4.15774,2.07887 z"
         style="display:inline;opacity:1;fill:#ffdbba;fill-opacity:1;stroke:none;stroke-width:1.5;stroke-linecap:round;stroke-linejoin:round;stroke-miterlimit:4;stroke-dasharray:none;stroke-dashoffset:0;stroke-opacity:1;paint-order:fill markers stroke" />
      <path
         inkscape:connector-curvature="0"
         id="path1117"
         d="m 48.375785,183.81136 c 0,0 -1.73725,-3.0736 -0.93545,-6.41447 0.80181,-3.34087 2.00453,-5.07812 1.60362,-6.01357 -0.4009,-0.93544 -0.80181,-0.93544 -1.33634,-0.93544 -0.53454,0 -6.41447,3.0736 -7.48355,3.4745 -1.06908,0.40091 -2.80633,3.20724 -3.20724,3.74178 -0.4009,0.53454 -3.20723,9.08716 -3.20723,9.08716 l 0.66817,3.74178 2.93997,3.74177 6.28083,3.20723 3.20724,-1.33635 0.93544,-2.80632 z"
         style="display:inline;opacity:1;fill:#ffdbba;fill-opacity:1;stroke:none;stroke-width:1.5;stroke-linecap:round;stroke-linejoin:round;stroke-miterlimit:4;stroke-dasharray:none;stroke-dashoffset:0;stroke-opacity:1;paint-order:fill markers stroke" />
      <path
         inkscape:connector-curvature="0"
         id="path1119"
         d="m 49.871555,155.16896 c 0,0 -2.45684,0.75595 -4.7247,-1.13393 -2.26786,-1.88988 -2.07887,-3.40178 -2.07887,-3.40178 0,0 -9.63839,9.26041 -9.63839,13.04018 0,3.77976 1.13393,7.18154 1.13393,7.18154 0,0 6.61458,1.7009 8.12649,1.7009 1.5119,0 8.12648,-3.2128 10.58333,-7.37054 2.45684,-4.15774 5.29167,-9.82738 4.15774,-12.6622 -1.13393,-2.83482 -3.02381,-2.45685 -4.53572,-1.32292 -1.5119,1.13393 -3.02381,3.96875 -3.02381,3.96875 z"
         style="display:inline;opacity:1;fill:#ffdbba;fill-opacity:1;stroke:none;stroke-width:1.5;stroke-linecap:round;stroke-linejoin:round;stroke-miterlimit:4;stroke-dasharray:none;stroke-dashoffset:0;stroke-opacity:1;paint-order:fill markers stroke" />
      <path
         style="display:inline;opacity:1;fill:none;fill-opacity:1;stroke:#736997;stroke-width:2.60500002;stroke-linecap:round;stroke-linejoin:round;stroke-miterlimit:4;stroke-dasharray:none;stroke-dashoffset:0;stroke-opacity:1;paint-order:fill markers stroke"
         d="m 41.556085,172.74486 c 0,0 -11.35463,0.77662 -8.41466,-8.57782 2.93996,-9.35443 16.70434,-20.04521 25.65787,-23.38608 8.95353,-3.34087 17.37252,-3.4745 17.37252,-3.4745 0,0 3.55986,-2.92619 18.48993,-3.87113 14.930045,-0.94494 32.127965,2.45685 35.529755,3.77976 3.40178,1.32292 6.99256,-1.70089 14.74107,-0.37798 7.74851,1.32292 13.04018,11.90625 17.57589,13.60715 4.53572,1.70089 9.26042,1.13393 13.04018,5.10268 3.77976,3.96875 4.7247,8.12649 4.53571,10.96131 -0.18898,2.83482 5.85863,9.63839 6.4256,11.33928 0.56696,1.7009 -4.91369,2.26786 -9.82738,1.13393 -4.91369,-1.13393 -5.10268,-1.32291 -5.10268,-1.32291 0,0 -12.28423,3.02381 -18.14286,1.32291 -5.85863,-1.70089 -17.76488,-2.83482 -17.76488,-2.83482 l 3.96875,-4.53571 -5.85863,-1.7009 c 0,0 1.70089,9.07143 0,13.22917 -1.70089,4.15774 -2.07887,6.04762 -7.9375,5.29167 -5.85863,-0.75595 -3.59077,-3.59077 -3.59077,-3.59077 0,0 -2.26786,-1.32292 -2.07887,-2.64584 l 0.18899,-1.32291 c 0,0 -0.75596,4.15773 -5.29167,4.34672 -4.53571,0.18899 -5.85863,-5.48065 -5.85863,-5.48065 0,0 -1.32292,-2.07887 0.37797,-4.53572 1.7009,-2.45684 2.83483,-2.45684 2.83483,-2.45684 l 1.32291,-1.32292 -3.21279,-6.4256 c 0,0 -8.31547,1.13393 -13.040175,1.32292 l -4.72471,0.18899 c 0,0 -13.22917,7.9375 -14.93006,8.12649 -0.85776,0.0953 3.37886,0.19471 5.63514,3.54871 1.15066,1.71047 1.95548,2.8801 2.28171,4.97369 0.15167,0.97331 0.58915,2.95696 -0.52024,4.88193 -0.40533,0.70331 -0.90413,1.59237 -4.84103,2.67508 -2.89639,0.79654 -5.0799,-4.00144 -9.28285,-6.15079 -2.90847,-1.48737 -8.16342,-3.38666 -12.83887,-5.99685 -0.97651,-0.54516 -0.89161,-3.1009 -1.7207,-2.78219 -0.99973,0.38431 -6.56496,5.27177 -8.27812,9.82758 -1.04933,2.79047 0.47478,4.6156 -0.0135,10.21679 -0.20028,2.29753 -1.72767,1.03084 -6.35583,1.36385 -1.89239,0.13616 -1.90584,-1.74549 -3.92325,-2.2773 -3.14582,-0.82929 -1.0467,-2.75164 -3.83559,-3.80967 -1.87422,-0.71102 -0.35001,-4.25993 0.65813,-8.16819 1.23224,-4.77707 4.9766,-9.81733 4.9766,-9.81733"
         id="path1121"
         inkscape:connector-curvature="0"
         sodipodi:nodetypes="csscscscsccscccccsscccscccccscssssssssssssssc" />
      <path
         sodipodi:nodetypes="cssc"
         inkscape:connector-curvature="0"
         id="path4656"
         d="m 147.80005,156.6835 c -1.60362,0.53454 -8.83332,7.8291 -5.09155,13.9763 3.74177,6.1472 9.63513,8.47434 20.05864,8.20707 10.42351,-0.26727 13.53745,-4.42112 13.53745,-4.42112"
         style="opacity:1;fill:none;fill-opacity:1;stroke:#736997;stroke-width:1.5;stroke-linecap:round;stroke-linejoin:round;stroke-miterlimit:4;stroke-dasharray:none;stroke-dashoffset:0;stroke-opacity:1;paint-order:fill markers stroke" />
      <path
         sodipodi:nodetypes="cc"
         inkscape:connector-curvature="0"
         id="path4664"
         d="m 151.45266,155.26345 c 10.39435,-3.827 19.04055,-2.78757 19.04055,-2.78757"
         style="opacity:1;fill:none;fill-opacity:1;stroke:#736997;stroke-width:1.5;stroke-linecap:round;stroke-linejoin:round;stroke-miterlimit:4;stroke-dasharray:none;stroke-dashoffset:0;stroke-opacity:1;paint-order:fill markers stroke" />
      <path
         sodipodi:nodetypes="ccc"
         inkscape:connector-curvature="0"
         id="path4668"
         d="m 170.44596,152.42863 c 6.10067,2.19271 12.25187,8.34175 7.37054,18.99331 -1.13393,2.83482 -1.51191,3.02381 -1.51191,3.02381"
         style="opacity:1;fill:none;fill-opacity:1;stroke:#736997;stroke-width:1.5;stroke-linecap:round;stroke-linejoin:round;stroke-miterlimit:4;stroke-dasharray:none;stroke-dashoffset:0;stroke-opacity:1;paint-order:fill markers stroke" />
      <path
         sodipodi:nodetypes="ccc"
         inkscape:connector-curvature="0"
         id="path4670"
         d="m 172.4513,177.37981 c 6.48172,1.93524 8.49074,2.23267 14.02228,1.67223 -1.7032,-5.16382 -3.51113,-7.59232 -7.05069,-11.12639"
         style="opacity:1;fill:none;fill-opacity:1;stroke:#736997;stroke-width:1.005;stroke-linecap:round;stroke-linejoin:round;stroke-miterlimit:4;stroke-dasharray:none;stroke-dashoffset:0;stroke-opacity:1;paint-order:fill markers stroke" />
      <path
         sodipodi:nodetypes="cc"
         inkscape:connector-curvature="0"
         id="path4672"
         d="m 176.30459,174.44575 c 2.65799,1.92673 5.41586,2.73594 9.23355,4.43925"
         style="opacity:1;fill:none;fill-opacity:1;stroke:#736997;stroke-width:1.5;stroke-linecap:round;stroke-linejoin:round;stroke-miterlimit:4;stroke-dasharray:none;stroke-dashoffset:0;stroke-opacity:1;paint-order:fill markers stroke" />
      <path
         sodipodi:nodetypes="cc"
         inkscape:connector-curvature="0"
         id="path4676"
         d="m 136.842,176.26099 c 3.97325,1.11087 8.32788,1.12126 13.36347,1.06909"
         style="opacity:1;fill:none;fill-opacity:1;stroke:#736997;stroke-width:1.005;stroke-linecap:round;stroke-linejoin:round;stroke-miterlimit:4;stroke-dasharray:none;stroke-dashoffset:0;stroke-opacity:1;paint-order:fill markers stroke" />
      <path
         sodipodi:nodetypes="ccc"
         inkscape:connector-curvature="0"
         id="path4678"
         d="m 143.85782,172.51922 c -1.27752,1.31583 -4.58033,2.95603 -7.01582,3.74177 1.50325,-1.97276 3.95131,-4.47977 5.04471,-6.71515"
         style="opacity:1;fill:none;fill-opacity:1;stroke:#736997;stroke-width:1.5;stroke-linecap:round;stroke-linejoin:round;stroke-miterlimit:4;stroke-dasharray:none;stroke-dashoffset:0;stroke-opacity:1;paint-order:fill markers stroke" />
      <path
         inkscape:connector-curvature="0"
         id="path4680"
         d="m 140.38332,171.38332 -6.48129,-1.33634"
         style="opacity:1;fill:none;fill-opacity:1;stroke:#736997;stroke-width:1.005;stroke-linecap:round;stroke-linejoin:round;stroke-miterlimit:4;stroke-dasharray:none;stroke-dashoffset:0;stroke-opacity:1;paint-order:fill markers stroke" />
      <path
         sodipodi:nodetypes="cc"
         inkscape:connector-curvature="0"
         id="path4684"
         d="m 130.56116,155.21351 c 3.11417,10.56267 7.27126,34.25134 -4.10218,32.88663"
         style="opacity:1;fill:none;fill-opacity:1;stroke:#736997;stroke-width:1.5;stroke-linecap:round;stroke-linejoin:round;stroke-miterlimit:4;stroke-dasharray:none;stroke-dashoffset:0;stroke-opacity:1;paint-order:fill markers stroke" />
      <path
         sodipodi:nodetypes="cc"
         inkscape:connector-curvature="0"
         id="path4686"
         d="m 122.47626,185.08089 c 1.67899,3.66009 5.45347,4.16635 8.15172,-0.40091"
         style="opacity:1;fill:none;fill-opacity:1;stroke:#736997;stroke-width:1.5;stroke-linecap:round;stroke-linejoin:round;stroke-miterlimit:4;stroke-dasharray:none;stroke-dashoffset:0;stroke-opacity:1;paint-order:fill markers stroke" />
      <path
         sodipodi:nodetypes="cscc"
         inkscape:connector-curvature="0"
         id="path4688"
         d="m 116.99723,155.68124 c 0,0 -0.79375,2.27604 1.96466,7.73147 1.74873,3.45853 5.49295,7.25857 3.44755,13.51646 -4.5696,7.11564 3.06997,12.26042 5.04472,3.84199"
         style="opacity:1;fill:none;fill-opacity:1;stroke:#736997;stroke-width:1.5;stroke-linecap:round;stroke-linejoin:round;stroke-miterlimit:4;stroke-dasharray:none;stroke-dashoffset:0;stroke-opacity:1;paint-order:fill markers stroke" />
      <path
         inkscape:connector-curvature="0"
         id="path4692"
         d="m 118.86812,169.17835 c 0,0 -4.20949,1.93771 -5.07812,4.34313 -0.86863,2.40543 0.86863,3.60814 0.86863,3.60814"
         style="opacity:1;fill:none;fill-opacity:1;stroke:#736997;stroke-width:1.5;stroke-linecap:round;stroke-linejoin:round;stroke-miterlimit:4;stroke-dasharray:none;stroke-dashoffset:0;stroke-opacity:1;paint-order:fill markers stroke" />
      <path
         inkscape:connector-curvature="0"
         id="path4694"
         d="m 113.52273,174.12284 c 0,0 -1.73725,-0.0668 -2.93997,1.67043 -1.20271,1.73725 -0.20045,4.34313 1.40317,4.87767 1.60362,0.53454 2.00452,0.46772 2.00452,0.46772"
         style="opacity:1;fill:none;fill-opacity:1;stroke:#736997;stroke-width:1.5;stroke-linecap:round;stroke-linejoin:round;stroke-miterlimit:4;stroke-dasharray:none;stroke-dashoffset:0;stroke-opacity:1;paint-order:fill markers stroke" />
      <path
         sodipodi:nodetypes="cccc"
         inkscape:connector-curvature="0"
         id="path4696"
         d="m 109.98141,178.39915 c 0,0 -0.80181,1.53679 0.13364,3.27405 0.93544,1.73725 3.67495,2.53906 6.08038,2.13816 2.40542,-0.40091 4.81085,-3.20724 4.81085,-3.20724"
         style="opacity:1;fill:none;fill-opacity:1;stroke:#736997;stroke-width:1.5;stroke-linecap:round;stroke-linejoin:round;stroke-miterlimit:4;stroke-dasharray:none;stroke-dashoffset:0;stroke-opacity:1;paint-order:fill markers stroke" />
      <path
         inkscape:connector-curvature="0"
         id="path4698"
         d="m 112.98819,160.02437 c 0,0 -2.00452,1.73725 -1.46998,5.34539 0.53454,3.60814 3.34087,6.28083 3.34087,6.28083"
         style="opacity:1;fill:none;fill-opacity:1;stroke:#736997;stroke-width:1.5;stroke-linecap:round;stroke-linejoin:round;stroke-miterlimit:4;stroke-dasharray:none;stroke-dashoffset:0;stroke-opacity:1;paint-order:fill markers stroke" />
      <path
         sodipodi:nodetypes="csc"
         inkscape:connector-curvature="0"
         id="path4700"
         d="m 95.147955,157.21804 c 0,0 2.75769,4.28302 -4.45859,9.62841 -7.21628,5.3454 -13.85609,7.05972 -13.85609,7.05972"
         style="opacity:1;fill:none;fill-opacity:1;stroke:#736997;stroke-width:1.5;stroke-linecap:round;stroke-linejoin:round;stroke-miterlimit:4;stroke-dasharray:none;stroke-dashoffset:0;stroke-opacity:1;paint-order:fill markers stroke" />
      <path
         sodipodi:nodetypes="ccscc"
         inkscape:connector-curvature="0"
         id="path4702"
         d="m 70.607795,172.6319 c 0,0 4.62858,1.29048 8.50398,3.02774 3.87541,1.73725 5.07813,4.67721 2.93997,6.5481 -2.13816,1.87089 -5.34539,1.06908 -6.5481,-0.4009 l -1.20272,-1.46999"
         style="opacity:1;fill:none;fill-opacity:1;stroke:#736997;stroke-width:1.5;stroke-linecap:round;stroke-linejoin:round;stroke-miterlimit:4;stroke-dasharray:none;stroke-dashoffset:0;stroke-opacity:1;paint-order:fill markers stroke" />
      <path
         inkscape:connector-curvature="0"
         id="path4704"
         d="m 83.120825,180.47049 c 0,0 3.14041,2.27179 1.33634,4.47676 -1.80406,2.20498 -4.67721,1.5368 -5.94674,0.93545 -1.26953,-0.60136 -1.46998,-1.80407 -1.46998,-1.80407"
         style="opacity:1;fill:none;fill-opacity:1;stroke:#736997;stroke-width:1.5;stroke-linecap:round;stroke-linejoin:round;stroke-miterlimit:4;stroke-dasharray:none;stroke-dashoffset:0;stroke-opacity:1;paint-order:fill markers stroke" />
      <path
         inkscape:connector-curvature="0"
         id="path4706"
         d="m 84.523985,185.54861 c 0,0 0.46772,2.80633 -3.20723,3.60814 -3.67496,0.80181 -4.27631,-3.27405 -10.28988,-5.87993 -6.01356,-2.60588 -11.69304,-3.67496 -12.82894,-6.68174 -1.13589,-3.00678 -1.00226,-3.80859 6.21402,-8.15172 7.21628,-4.34313 9.35443,-4.40995 14.03165,-10.49033 4.67722,-6.08038 4.67722,-7.01583 4.67722,-7.01583"
         style="opacity:1;fill:none;fill-opacity:1;stroke:#736997;stroke-width:1.5;stroke-linecap:round;stroke-linejoin:round;stroke-miterlimit:4;stroke-dasharray:none;stroke-dashoffset:0;stroke-opacity:1;paint-order:fill markers stroke" />
      <path
         inkscape:connector-curvature="0"
         id="path4708"
         d="m 57.329315,174.18965 c 0,0 -5.87993,2.93997 -8.8199,8.95353 -2.93996,6.01357 0.40091,11.62623 -2.27179,12.82894 -2.67269,1.20271 -5.61266,-1.06908 -5.61266,-1.06908"
         style="opacity:1;fill:none;fill-opacity:1;stroke:#736997;stroke-width:1.005;stroke-linecap:round;stroke-linejoin:round;stroke-miterlimit:4;stroke-dasharray:none;stroke-dashoffset:0;stroke-opacity:1;paint-order:fill markers stroke" />
      <path
         sodipodi:nodetypes="cscc"
         inkscape:connector-curvature="0"
         id="path4710"
         d="m 44.767645,171.78423 c -0.66817,0.26727 -5.34539,1.87089 -6.5481,5.47902 -1.20272,3.60814 -4.40995,9.88898 -3.47451,12.16077 2.38527,4.17879 6.19016,0.52845 6.54811,-2.93997"
         style="opacity:1;fill:none;fill-opacity:1;stroke:#736997;stroke-width:1.5;stroke-linecap:round;stroke-linejoin:round;stroke-miterlimit:4;stroke-dasharray:none;stroke-dashoffset:0;stroke-opacity:1;paint-order:fill markers stroke" />
      <path
         sodipodi:nodetypes="cc"
         inkscape:connector-curvature="0"
         id="path4712"
         d="m 36.215025,191.42854 c 2.2135,4.6792 6.60537,4.62982 8.55262,-0.26727"
         style="opacity:1;fill:none;fill-opacity:1;stroke:#736997;stroke-width:1.5;stroke-linecap:round;stroke-linejoin:round;stroke-miterlimit:4;stroke-dasharray:none;stroke-dashoffset:0;stroke-opacity:1;paint-order:fill markers stroke" />
      <path
         sodipodi:nodetypes="csssccc"
         inkscape:connector-curvature="0"
         id="path4714"
         d="m 82.566495,147.04247 c 0,0 0.94494,-8.88244 -8.69345,-9.63839 -9.63839,-0.75595 -27.97024,10.58333 -34.20684,17.57589 -6.23661,6.99256 -7.74852,13.41816 -4.91369,15.68602 2.83482,2.26786 9.4494,1.88988 13.60714,-0.75596 14.86006,-12.24477 8.72695,-26.90729 1.58813,-14.70208 -2.17648,7.17795 -9.85736,7.75638 -9.85736,7.75638"
         style="opacity:1;fill:none;fill-opacity:1;stroke:#736997;stroke-width:1.5;stroke-linecap:round;stroke-linejoin:round;stroke-miterlimit:4;stroke-dasharray:none;stroke-dashoffset:0;stroke-opacity:1;paint-order:fill markers stroke" />
      <path
         sodipodi:nodetypes="csssc"
         inkscape:connector-curvature="0"
         id="path4716"
         d="m 116.96233,150.82224 c 0,0 1.88988,-9.07143 12.85119,-11.90625 10.96131,-2.83483 18.52083,-2.45685 21.73363,0.56696 3.2128,3.02381 7.01779,9.85024 10.77232,11.1503 4.52622,1.56725 7.80387,1.76771 7.80387,1.76771"
         style="opacity:1;fill:none;fill-opacity:1;stroke:#736997;stroke-width:1.5;stroke-linecap:round;stroke-linejoin:round;stroke-miterlimit:4;stroke-dasharray:none;stroke-dashoffset:0;stroke-opacity:1;paint-order:fill markers stroke" />
      <path
         sodipodi:nodetypes="csc"
         inkscape:connector-curvature="0"
         id="path4718"
         d="m 76.171815,137.70736 c 0,0 5.34539,-4.54358 24.856075,-4.00904 19.51066,0.53454 31.00325,4.47676 31.00325,4.47676"
         style="opacity:1;fill:none;fill-opacity:1;stroke:#736997;stroke-width:1.005;stroke-linecap:round;stroke-linejoin:round;stroke-miterlimit:4;stroke-dasharray:none;stroke-dashoffset:0;stroke-opacity:1;paint-order:fill markers stroke" />
      <path
         sodipodi:nodetypes="cc"
         inkscape:connector-curvature="0"
         id="path4722"
         d="m 94.094775,165.18533 c 6.295485,0.69314 10.831225,1.35068 17.197905,-0.18899"
         style="opacity:1;fill:none;fill-opacity:1;stroke:#736997;stroke-width:1.005;stroke-linecap:round;stroke-linejoin:round;stroke-miterlimit:4;stroke-dasharray:none;stroke-dashoffset:0;stroke-opacity:1;paint-order:fill markers stroke" />
      <path
         sodipodi:nodetypes="cccc"
         inkscape:connector-curvature="0"
         id="path4724"
         d="m 154.78247,174.08942 c 1.78912,-2.12792 2.65085,-2.50527 5.47902,-3.34087 0,0 0.20046,1.67044 -1.06908,2.87315 -1.26952,1.20272 -4.40994,0.46772 -4.40994,0.46772 z"
         style="opacity:1;fill:none;fill-opacity:1;stroke:#736997;stroke-width:0.5;stroke-linecap:round;stroke-linejoin:round;stroke-miterlimit:4;stroke-dasharray:none;stroke-dashoffset:0;stroke-opacity:1;paint-order:fill markers stroke" />
      <path
         sodipodi:nodetypes="ccsc"
         inkscape:connector-curvature="0"
         id="path4726"
         d="m 168.10723,168.32726 c 2.34204,-1.30493 3.72029,-1.55536 6.70908,-0.77958 0,0 -1.48828,1.6064 -3.09468,1.98437 -1.6064,0.37798 -3.6144,-1.20479 -3.6144,-1.20479 z"
         style="opacity:1;fill:none;fill-opacity:1;stroke:#736997;stroke-width:0.5;stroke-linecap:round;stroke-linejoin:round;stroke-miterlimit:4;stroke-dasharray:none;stroke-dashoffset:0;stroke-opacity:1;paint-order:fill markers stroke" />
      <path
         sodipodi:nodetypes="ccc"
         inkscape:connector-curvature="0"
         id="path4730"
         d="m 153.94724,166.57247 c 0.87242,-5.19017 6.80812,-5.29457 8.48581,-2.40543 -0.11232,-3.58228 2.90964,-5.67675 6.61492,-4.27631"
         style="opacity:1;fill:none;fill-opacity:1;stroke:#736997;stroke-width:0.5;stroke-linecap:round;stroke-linejoin:round;stroke-miterlimit:4;stroke-dasharray:none;stroke-dashoffset:0;stroke-opacity:1;paint-order:fill markers stroke" />
      <path
         sodipodi:nodetypes="ccccc"
         inkscape:connector-curvature="0"
         id="path4732"
         d="m 161.37544,167.82984 c 0,0 -0.74646,-0.32193 -0.61282,-1.25737 0.90203,-1.30294 1.5368,-2.33861 1.5368,-2.33861 1.40814,0.19488 1.46542,0.49667 3.20993,0.78958 0.31892,0.96857 0.26356,1.38568 0.26356,1.38568"
         style="opacity:1;fill:none;fill-opacity:1;stroke:#736997;stroke-width:0.5;stroke-linecap:round;stroke-linejoin:round;stroke-miterlimit:4;stroke-dasharray:none;stroke-dashoffset:0;stroke-opacity:1;paint-order:fill markers stroke" />
      <path
         sodipodi:nodetypes="cc"
         inkscape:connector-curvature="0"
         id="path4734"
         d="m 160.95455,166.84659 c 2.03012,-0.0636 2.53113,-0.0854 4.42403,-1.55105"
         style="opacity:1;fill:none;fill-opacity:1;stroke:#736997;stroke-width:0.5;stroke-linecap:round;stroke-linejoin:round;stroke-miterlimit:4;stroke-dasharray:none;stroke-dashoffset:0;stroke-opacity:1;paint-order:fill markers stroke" />
      <path
         inkscape:connector-curvature="0"
         id="path4736"
         d="m 168.74507,161.21658 19.27678,-8.88244"
         style="opacity:1;fill:none;fill-opacity:1;stroke:#736997;stroke-width:0.5;stroke-linecap:round;stroke-linejoin:round;stroke-miterlimit:4;stroke-dasharray:none;stroke-dashoffset:0;stroke-opacity:1;paint-order:fill markers stroke" />
      <path
         inkscape:connector-curvature="0"
         id="path4738"
         d="m 167.71163,160.29164 17.10525,-8.55263"
         style="opacity:1;fill:none;fill-opacity:1;stroke:#736997;stroke-width:0.5;stroke-linecap:round;stroke-linejoin:round;stroke-miterlimit:4;stroke-dasharray:none;stroke-dashoffset:0;stroke-opacity:1;paint-order:fill markers stroke" />
      <path
         inkscape:connector-curvature="0"
         id="path4740"
         d="m 167.57799,159.22256 10.55715,-6.94901"
         style="opacity:1;fill:none;fill-opacity:1;stroke:#736997;stroke-width:0.5;stroke-linecap:round;stroke-linejoin:round;stroke-miterlimit:4;stroke-dasharray:none;stroke-dashoffset:0;stroke-opacity:1;paint-order:fill markers stroke" />
      <path
         inkscape:connector-curvature="0"
         id="path4742"
         d="m 156.61994,165.10249 -23.65335,5.7463"
         style="opacity:1;fill:none;fill-opacity:1;stroke:#736997;stroke-width:0.5;stroke-linecap:round;stroke-linejoin:round;stroke-miterlimit:4;stroke-dasharray:none;stroke-dashoffset:0;stroke-opacity:1;paint-order:fill markers stroke" />
      <path
         inkscape:connector-curvature="0"
         id="path4744"
         d="m 156.48631,165.77066 -18.97614,6.1472"
         style="opacity:1;fill:none;fill-opacity:1;stroke:#736997;stroke-width:0.5;stroke-linecap:round;stroke-linejoin:round;stroke-miterlimit:4;stroke-dasharray:none;stroke-dashoffset:0;stroke-opacity:1;paint-order:fill markers stroke" />
      <path
         inkscape:connector-curvature="0"
         id="path4746"
         d="m 155.6845,164.03341 -15.10073,3.4745"
         style="opacity:1;fill:none;fill-opacity:1;stroke:#736997;stroke-width:0.5;stroke-linecap:round;stroke-linejoin:round;stroke-miterlimit:4;stroke-dasharray:none;stroke-dashoffset:0;stroke-opacity:1;paint-order:fill markers stroke" />
      <path
         inkscape:connector-curvature="0"
         id="path4748"
         d="m 157.12107,171.98468 c 0,0 0.10023,0.56795 0.50113,1.23612 0.40091,0.66818 0.93544,0.83522 0.93544,0.83522 0,0 0.33409,-0.93544 -0.0668,-1.73725 -0.40091,-0.80181 -0.43431,-0.83522 -0.43431,-0.83522 z"
         style="opacity:1;fill:#736997;fill-opacity:1;stroke:#736997;stroke-width:0.5;stroke-linecap:round;stroke-linejoin:round;stroke-miterlimit:4;stroke-dasharray:none;stroke-dashoffset:0;stroke-opacity:1;paint-order:fill markers stroke" />
      <path
         inkscape:connector-curvature="0"
         id="path4748-1"
         d="m 170.80498,167.26328 c 0,0 -0.0802,0.52383 0.0985,1.21982 0.17877,0.69601 0.64269,0.99235 0.64269,0.99235 0,0 0.61402,-0.72215 0.47692,-1.53476 -0.13712,-0.81261 -0.15895,-0.85117 -0.15895,-0.85117 z"
         style="opacity:1;fill:#736997;fill-opacity:1;stroke:#736997;stroke-width:0.48221555;stroke-linecap:round;stroke-linejoin:round;stroke-miterlimit:4;stroke-dasharray:none;stroke-dashoffset:0;stroke-opacity:1;paint-order:fill markers stroke" />
    </g>
  </g>
</svg>
