<?xml version="1.0" encoding="utf-8" ?>
<svg xmlns="http://www.w3.org/2000/svg" xmlns:xlink="http://www.w3.org/1999/xlink" width="1024" height="1024">
	<path fill="#FAFBFC" d="M0 0L1024 0L1024 1024L0 1024L0 0Z"/>
	<path fill="#243F56" d="M87.0087 902.572C89.0064 902.546 91.4479 902.409 93.145 903.656C94.3332 904.528 94.3288 904.734 94.5381 906.111C93.8461 907.585 93.1408 908.171 91.87 909.093C89.8888 909.36 87.4435 909.478 85.8424 908.013C84.7393 907.004 84.755 906.709 84.6458 905.3C85.334 903.929 85.8043 903.436 87.0087 902.572Z"/>
	<path fill="#243F56" d="M933.163 902.558C935.161 902.446 937.812 902.156 939.457 903.58C940.529 904.508 940.544 904.831 940.697 906.156C940.191 907.751 939.515 908.44 938.297 909.563C936.331 909.631 933.4 909.827 931.82 908.367C931.028 907.634 930.595 906.961 930.794 905.849C931.039 904.474 932.2 903.467 933.163 902.558Z"/>
	<path fill="#243F56" d="M257.076 567.173C258.99 565.258 260.967 563.413 263.356 562.099C266.335 560.461 270.72 558.984 274.1 560.244C275.308 560.694 275.696 561.093 276.138 562.263L275.43 563.445C273.749 564.613 271.852 564.492 269.881 564.588C259.557 565.974 262.402 571.693 258.062 575.91C255.164 575.942 252.391 569.031 250.305 566.968C247.017 563.717 242.809 565.868 239.976 563.24C239.655 561.793 239.93 561.444 240.445 560.091L241.167 560.074C248.325 559.952 252.067 562.358 257.076 567.173Z"/>
	<path fill="#243F56" d="M342.661 269.677C343.562 269.773 344.524 269.837 345.401 270.061C346.427 270.323 346.994 270.643 347.548 271.553C346.469 274.826 337.093 275.532 334.289 277.899C331.63 280.144 331.091 284.689 327.895 286.578C324.207 283.602 323.896 278.551 319.256 275.826C319.104 275.736 318.949 275.651 318.796 275.563C316.971 274.967 314.933 275.117 313.157 274.517C311.891 274.09 311.429 273.558 310.742 272.455C310.841 271.639 310.666 271.655 311.196 271.192C312.361 270.172 314.246 270.093 315.722 270.236C321.155 270.761 324.774 274.358 328.089 278.295L328.457 277.805C332.378 272.678 336.359 270.514 342.661 269.677Z"/>
	<path fill="#243F56" d="M663.997 278.554Q664.985 278.499 665.974 278.504C672.226 278.578 675.843 283 679.852 287.147C681.285 285.363 682.725 283.4 684.501 281.946C687.118 279.804 690.557 278.143 694.016 278.579C695.851 278.811 698.135 279.537 699.237 281.112C699.759 281.858 699.573 281.656 699.312 282.653C698.355 283.346 697.787 283.344 696.654 283.324C695.03 283.294 693.454 283.364 691.834 283.474C684.265 285.857 684.21 293.83 679.571 295.75C676.233 293.475 675.278 288.567 672.302 286.037C669.115 283.327 663.556 284.377 660.511 281.854L660.464 280.839C661.377 279.526 662.583 279.151 663.997 278.554Z"/>
	<path fill="#243F56" d="M773.581 528.561C776.98 528.196 779.907 528.46 783.124 529.722C788.836 531.963 792.768 536.286 795.251 541.769C797.113 540.992 799.058 540.29 801.077 540.075Q801.513 540.028 801.95 540.002Q802.387 539.977 802.825 539.974Q803.263 539.972 803.701 539.991Q804.139 540.011 804.575 540.053Q805.011 540.095 805.444 540.159Q805.878 540.223 806.307 540.31Q806.737 540.396 807.161 540.504Q807.586 540.612 808.004 540.742Q808.423 540.871 808.834 541.022Q809.245 541.173 809.649 541.345Q810.052 541.517 810.445 541.709Q810.839 541.901 811.223 542.113Q811.606 542.325 811.978 542.556Q812.35 542.787 812.71 543.037Q813.07 543.287 813.416 543.556Q813.763 543.824 814.095 544.109C818.563 547.92 820.122 552.57 820.598 558.201C823.819 558.321 827.048 558.02 830.269 558.202C832.145 558.308 833.286 558.537 834.547 559.972L834.405 561.359C831.665 563.358 820.227 562.587 816.556 562.199C816.304 557.932 816.313 553.425 813.922 549.707C812.065 546.817 809.213 544.856 805.826 544.26C794.621 542.286 796.929 549.615 790.996 553.295C790.314 553.717 790.109 553.443 789.417 553.229L788.85 552.02C788.87 549.288 790.052 546.783 790.999 544.255C790.658 543.136 790.293 542.026 789.816 540.956C787.884 536.621 785.122 534.957 780.911 533.272C780.737 533.218 780.564 533.157 780.387 533.111C776.656 532.121 772.85 532.222 769.457 534.216C764.209 537.301 762.372 542.635 761.063 548.198C762.438 550.094 764.149 552.223 763.848 554.71C763.676 556.129 763.243 556.888 762.11 557.719C758.869 556.817 759.632 553.133 757.454 551.059C755.481 549.18 752.176 547.891 749.453 548.033C746.892 548.166 744.55 549.433 742.849 551.323C739.691 554.835 739.857 557.585 740.114 562.005C735.373 562.072 722.915 563.172 719.132 560.931C718.282 560.428 718.574 560.695 718.334 559.594L719.034 558.809L719.113 559.73L719.322 558.616C722.565 557.066 732.033 557.991 735.921 558.022C736.081 557.006 736.244 555.987 736.474 554.984C737.237 551.653 739.487 548.512 742.413 546.741C747.361 543.747 752.629 544.541 757.894 545.926C758.431 542.684 759.071 539.809 760.797 536.939C763.77 531.995 768.199 529.907 773.581 528.561Z"/>
	<path fill="#243F56" d="M221.712 304.679Q225.424 304.638 229.044 305.46C239.144 307.713 245.037 314.656 250.284 322.986C255.889 320.771 261.681 320.057 267.487 322.034C275.396 324.727 278.621 330.833 281.923 337.89C283.471 338.006 284.972 338.23 286.402 338.861C290.817 340.811 292.232 344.199 293.982 348.376C295.571 348.343 297.473 348.156 298.989 348.721C300.133 349.147 300.74 349.841 301.212 350.906C298.911 353.09 293.485 352.478 290.495 352.511C289.973 350.878 289.47 349.188 288.708 347.649C287.761 345.733 286.292 343.201 284.192 342.461C280.545 343.96 281.36 349.196 279.209 352.038C278.628 352.805 278.961 352.552 277.897 352.706C275.425 350.404 278.692 340.781 276.029 334.362C274.601 330.92 272.203 328.489 268.756 327.071C262.8 324.62 257.03 324.959 251.252 327.464C250.826 329.452 250.508 331.774 249.701 333.638C249.121 334.976 248.183 336.116 246.835 336.696L246.067 336.183C244.939 332.595 245.846 330.136 246.816 326.633C243.383 319.4 239.222 313.854 231.7 310.611Q230.321 310.176 228.914 309.844C221.821 308.221 214.141 309.088 207.977 313.099C200.994 317.643 197.683 324.521 196.082 332.416C199.628 335.088 202.705 338.032 204.376 342.235C205.375 344.749 205.769 347.602 204.713 350.156L203.944 350.28C200.744 347.778 199.267 342.119 196.782 338.77C194.525 335.728 190.649 333.722 186.905 333.278C183.453 332.869 180.082 334.047 177.41 336.216C172.629 340.096 171.54 344.795 170.882 350.567C166.391 350.74 156.078 352.147 152.641 349.214L152.785 348.229C156.092 345.186 163.056 346.378 167.329 346.4C167.465 345.125 167.608 343.839 167.962 342.603C169.261 338.063 172.465 333.828 176.631 331.568C181.53 328.912 186.644 329.143 191.833 330.615C193.543 325.061 195.568 319.821 199.323 315.303C205.1 308.354 213.025 305.484 221.712 304.679Z"/>
	<path fill="#243F56" d="M507.855 190.502C506.381 189.721 505.158 189.23 504.355 187.677C503.852 183.857 503.355 151.575 504.151 148.161C504.725 145.702 507.69 146.758 507.875 143.652C508.221 137.855 505.944 120.512 509.211 116.682C510.32 115.382 511.718 114.905 513.364 114.794C514.879 114.692 516.37 114.94 517.468 116.098C520.477 119.272 518.761 140.362 518.697 145.996C527.14 146.262 542.353 144.637 549.779 146.536C551.302 149.012 550.357 154.849 550.204 157.815C559.755 157.536 569.91 156.605 579.413 157.194C581.582 157.328 583.803 157.533 585.342 159.218C585.654 162.579 577.488 174.638 575.598 178.652Q580.17 187.184 585.378 195.344C585.105 196.532 584.751 197.234 583.683 197.918C581.883 199.069 549.171 198.879 546.227 198.017C543.897 195.734 544.366 192.19 544.331 189.168C535.699 188.94 527.126 189.115 518.5 189.477L518.564 238.881C530.882 245.909 542.638 253.707 554.801 260.967C570.113 270.108 586.365 278.737 600.73 289.315C600.892 293.347 602.459 304.158 599.27 306.85C597.213 308.586 580.115 307.403 576.058 307.444L576.09 366.493C579.664 366.736 586.685 366.372 589.111 369.464C591.019 371.897 589.763 384.265 589.926 388.168C591.412 386.909 592.876 385.569 594.469 384.448C596.683 385.819 597.759 387.118 599.202 389.245C599.116 384.479 597.947 374.227 599.833 370.088C600.27 369.845 600.671 369.516 601.146 369.357C603.259 368.653 639.446 372.84 643.467 373.997C644.045 374.163 644.524 374.397 645.058 374.666C645.974 379.661 645.411 385.495 645.422 390.598C646.783 389.409 648.125 388.107 649.618 387.087C651.4 389.74 652.744 392.277 653.876 395.282C653.983 391.204 653.123 380.762 653.753 377.699C653.952 376.732 654.259 376.286 654.888 375.557C656.172 374.924 657.222 374.761 658.658 374.769C664.503 374.8 670.654 376.054 676.486 376.661C682.539 377.291 690.133 376.947 695.9 378.776C696.484 378.961 696.946 379.221 697.47 379.531C698.898 387.364 697.81 405.914 697.834 414.686C697.874 428.866 698.986 444.03 697.978 458.114C697.849 459.918 697.669 462.035 696.564 463.548C695.4 465.142 693.57 465.346 691.756 465.448C691.164 465.481 690.583 465.473 689.991 465.461C682.259 471.937 673.96 477.602 666.076 483.86C666.639 503.401 668.219 522.978 669.269 542.503Q672.884 604.444 675.694 666.426Q677.551 705.687 678.933 744.968C679.497 758.849 679.472 773.186 681.051 786.966C697.324 779.619 712.76 777.442 729.826 783.986C747.978 790.947 763.1 805.078 773.097 821.549C774.999 825.873 776.61 830.194 777.883 834.745C780.388 832.512 782.962 830.395 785.858 828.681C795.013 823.261 806.671 821.538 816.983 824.237Q818.004 824.507 819.011 824.827Q820.018 825.146 821.008 825.515Q821.998 825.883 822.969 826.299Q823.94 826.715 824.89 827.178Q825.839 827.641 826.765 828.15Q827.691 828.659 828.591 829.212Q829.491 829.765 830.363 830.362Q831.235 830.958 832.077 831.597Q832.919 832.235 833.728 832.913Q834.538 833.592 835.314 834.309Q836.089 835.026 836.829 835.78Q837.569 836.534 838.271 837.324Q838.973 838.113 839.636 838.936Q840.299 839.758 840.921 840.612Q841.543 841.466 842.122 842.349Q842.702 843.233 843.238 844.143C849.053 854.152 850.11 865.073 847.237 876.179C853.522 873.239 859.514 871.577 866.373 873.862C871.991 875.733 876.925 879.886 879.452 885.274C882.223 891.181 881.394 897.074 879.254 902.991C886.374 902.822 914.517 901.75 919.167 903.846C920.614 904.497 921.319 905.217 921.861 906.683C921.248 907.715 921.598 907.443 920.606 907.981C918.093 909.346 914.768 909.1 911.996 909.089L297.352 908.877Q224.881 909.217 152.411 908.75C145.437 908.747 110.703 909.875 106.891 908.522C105.623 908.072 105.299 907.685 104.71 906.513C104.873 905.746 104.811 905.253 105.428 904.701C106.639 903.617 108.319 903.285 109.892 903.113C114.339 902.627 119.163 903.056 123.646 903.071L148.167 903.025C147.353 900.346 146.55 897.646 145.981 894.902C143.209 881.514 146.337 867.36 153.826 856.019C162.056 843.556 175.571 835.271 190.094 832.4Q191.709 832.07 193.339 831.82Q194.969 831.57 196.609 831.401Q198.249 831.232 199.895 831.145Q201.542 831.057 203.191 831.051Q204.839 831.046 206.486 831.122Q208.133 831.198 209.775 831.355Q211.416 831.513 213.047 831.751Q214.679 831.99 216.296 832.309Q217.914 832.628 219.514 833.027Q221.113 833.426 222.691 833.904Q224.269 834.382 225.822 834.937Q227.374 835.492 228.897 836.124Q230.42 836.755 231.91 837.462Q233.4 838.168 234.853 838.947Q236.306 839.726 237.719 840.577Q239.131 841.427 240.5 842.346C240.237 824.994 242.769 809.673 251.268 794.251C260.915 776.746 278.204 764.437 297.256 758.951C312.756 754.488 332.434 755.634 346.711 763.494L355.828 553.5C356.781 530.105 358.25 506.716 358.972 483.315Q350.852 475.285 344.066 466.101C341.393 466.048 338.582 466.031 335.999 465.285C333.864 464.667 331.454 463.335 330.441 461.252C328.904 458.089 328.795 383.983 330.332 378.679C333.006 376.482 368.726 374.478 374.425 374.398C374.729 377.905 374.532 381.535 374.51 385.059C376.4 387.189 378.066 389.332 379.664 391.689C381.252 390.085 382.556 388.36 383.904 386.559C384.015 383.366 383.032 376.12 385.203 373.718C391.844 371.585 421.736 370.266 429.39 370.434C429.703 374.091 429.651 377.746 429.638 381.414C431.242 384.04 432.996 386.529 434.784 389.031C436.832 386.247 438.982 383.527 440.501 380.408L440.092 369.791C442.057 369.36 444.058 369.125 446.049 368.849L446.019 307.586C441.746 307.487 429.836 309.079 426.812 306.281C423.84 303.529 425.41 292.289 425.558 288.439C433.313 282.536 442.382 277.837 450.672 272.683Q478.892 254.904 507.647 238.005Q507.315 214.251 507.855 190.502Z"/>
	<path fill="#FAFBFC" d="M662.583 652.478L668.853 652.544C669.205 657.345 669.628 662.041 669.424 666.861L662.899 667.07C662.662 662.216 662.667 657.338 662.583 652.478Z"/>
	<path fill="#4E7691" d="M647.113 395.749C648.682 396.468 649.358 397.239 650.264 398.702C652.316 402.016 654.917 407.103 653.95 411.022L653.044 411.465L645.103 411.422C645.068 408.61 644.903 405.8 644.92 402.987C644.939 399.823 644.781 398.06 647.113 395.749Z"/>
	<path fill="#FAFBFC" d="M362.587 656.297C362.91 656.332 363.159 656.61 363.427 656.794C363.75 662.401 363.418 668.264 362.877 673.847C361.94 674.839 359.531 674.689 358.125 674.814L357.569 674.73C355.804 671.965 357.236 660.736 357.671 657.28C358.602 656.248 361.149 656.417 362.587 656.297Z"/>
	<path fill="#4E7691" d="M594.419 390.939C596.963 393.937 599.435 399.245 599.665 403.179C599.752 404.684 599.487 405.774 598.517 406.912L596.38 406.9C594.222 406.649 592.031 406.536 589.865 406.36L589.964 394.722L594.419 390.939Z"/>
	<path fill="#56819F" d="M498.281 385.413C499.008 391.179 498.362 397.593 498.029 403.392C494.732 403.534 491.432 403.814 488.139 404.039C487.637 401.003 488.269 397.716 488.641 394.693C491.655 391.457 495.102 388.5 498.281 385.413Z"/>
	<path fill="#FAFBFC" d="M660.502 692.997L670.931 692.999C670.953 697.597 671.248 702.194 671.481 706.785C667.837 706.863 664.187 706.854 660.542 706.881L660.502 692.997Z"/>
	<path fill="#56819F" d="M374.06 391.888C376.024 393.848 377.69 397.727 380.283 398.798C380.997 399.093 381.415 398.725 382.081 398.47C383.474 397.031 383.927 395.25 384.554 393.399L384.393 407.125L384.301 409.231C382.479 411.272 376.342 410.766 373.647 410.931Q373.637 401.405 374.06 391.888Z"/>
	<path fill="#56819F" d="M429.026 389.814C431.51 391.864 433.429 394.941 435.847 397.212C437.736 395.068 439.277 392.627 440.89 390.273L440.896 402.625C440.861 403.364 441.02 405.098 440.518 405.617C438.582 407.617 431.697 407.412 428.925 407.687Q428.863 398.75 429.026 389.814Z"/>
	<path fill="#B4CDDE" d="M550.35 163.558Q563.912 163.338 577.47 162.956C575.991 165.329 574.554 167.752 572.988 170.068C565.738 169.642 557.993 171.908 550.716 172.521C550.682 169.516 550.618 166.554 550.35 163.558Z"/>
	<path fill="#B4CDDE" d="M509.612 149.971C511.512 149.981 513.427 150.182 515.322 150.318L515.47 184.422L509.517 184.288L509.612 149.971Z"/>
	<path fill="#FAFBFC" d="M351.588 790.292C355.974 790.413 360.365 790.436 364.752 790.5L363.989 808.086L350.618 808.103Q351.301 799.208 351.588 790.292Z"/>
	<path fill="#FAFBFC" d="M664.082 463.874C670.028 463.773 676.078 464.442 682.042 464.56Q673.5 470.682 665.33 477.293C661.596 480.238 653.257 477.912 648.685 477.379Q656.273 470.5 664.082 463.874Z"/>
	<path fill="#FAFBFC" d="M349.526 833.992L362.478 833.877C362.5 840.121 362.229 846.379 362.051 852.622C357.632 852.765 353.202 852.702 348.781 852.692Q349.218 843.345 349.526 833.992Z"/>
	<path fill="#FAFBFC" d="M362.997 534.025L378.058 534.024C378.073 539.506 378.297 545.079 377.873 550.546C372.589 550.632 367.297 550.601 362.011 550.621Q362.557 542.326 362.997 534.025Z"/>
	<path fill="#FAFBFC" d="M364.172 464.709C366.027 464.461 368.029 464.526 369.906 464.449C373.537 468.667 376.5 473.716 379.62 478.33C374.951 478.473 370.28 478.882 365.62 479.207C365.295 479.274 364.848 479.384 364.524 479.371C362.036 479.275 352.789 468.057 350.315 465.562C354.934 465.454 359.562 465.029 364.172 464.709Z"/>
	<path fill="#FAFBFC" d="M637.39 693.271Q646.75 693.063 656.113 693.086C656.214 696.618 657.165 703.588 655.52 706.6L654.125 706.857L634.994 707.043C634.999 703.551 633.708 696.383 635.601 693.507L637.39 693.271Z"/>
	<path fill="#FAFBFC" d="M548.366 453.408C556.49 453.799 564.637 455.095 572.764 455.736C570.632 458.379 568.626 461.148 566.568 463.851L561.394 470.654C557.037 470.051 552.663 469.548 548.299 469.002C548.125 463.83 548.328 458.587 548.366 453.408Z"/>
	<path fill="#FAFBFC" d="M608.485 458.979L629.176 460.785C623.773 464.912 618.745 469.301 613.972 474.146C611.861 475.453 598.329 473.737 594.747 473.443C599.094 468.378 603.534 463.465 608.485 458.979Z"/>
	<path fill="#4E7691" d="M541.776 327.45C542.89 327.409 544.037 327.348 545.142 327.518C546.524 327.731 548.02 328.295 548.684 329.633C549.727 331.732 549.427 359.516 548.771 363.032L548.01 363.454L539.65 363.596C539.497 356.423 538.375 336.32 540 330.354C540.304 329.236 541.048 328.324 541.776 327.45Z"/>
	<path fill="#56819F" d="M477.451 326.851C479.381 327.088 480.707 327.343 482.031 328.95C484.561 332.022 483.523 359.823 483.321 365.288C482.459 366.207 481.159 366.153 479.938 366.381C478.093 366.496 476.243 366.74 474.404 366.929C474.555 358.184 473.126 337.907 475.177 330.519C475.59 329.03 476.442 327.986 477.451 326.851Z"/>
	<path fill="#FAFBFC" d="M634.53 461.145C642.27 462.03 650.1 462.36 657.863 463.15Q649.786 469.679 642.309 476.888C636.429 477.663 625.568 475.79 619.294 475.304C624.837 471.036 629.633 466.116 634.53 461.145Z"/>
	<path fill="#FAFBFC" d="M578.55 455.957C586.248 457.286 594.444 457.531 602.243 458.244C598.003 462.875 593.634 467.402 589.332 471.976C589.29 472.015 589.253 472.063 589.205 472.094C586.51 473.857 571.489 471.784 567.153 471.42C570.604 466.1 574.443 460.789 578.55 455.957Z"/>
	<path fill="#FAFBFC" d="M393.639 462.75C395.979 462.517 398.379 462.505 400.73 462.395Q406.075 469.336 411.167 476.464C404.8 477.152 398.355 477.347 391.959 477.597C389.603 477.8 387.226 477.885 384.865 478.024Q379.897 470.978 374.686 464.11C380.992 463.563 387.325 463.201 393.639 462.75Z"/>
	<path fill="#B4CDDE" d="M648.465 791.382C650.84 798.799 651.472 807.083 652.517 814.796C652.821 817.037 652.743 819.677 653.421 821.797C654.017 839.956 653.141 857.92 652.603 876.043C651.104 876.073 649.78 876.005 648.302 875.743C646.831 873.323 648.256 800.764 648.465 791.382Z"/>
	<path fill="#FAFBFC" d="M632.539 652.418C641.333 652.12 650.159 652.264 658.954 652.458Q658.883 659.773 659.007 667.088L632.128 666.967L632.539 652.418Z"/>
	<path fill="#FAFBFC" d="M458.459 458.294L464.86 457.843C467.712 462.663 470.091 467.953 472.63 472.956C465.659 473.546 458.645 473.857 451.66 474.285L447.481 474.492C444.723 469.484 441.736 464.577 438.856 459.637L458.459 458.294Z"/>
	<path fill="#FAFBFC" d="M428.739 460.294C429.872 460.15 431.554 459.775 432.65 460.132C436.791 461.48 440.718 471.191 442.338 474.992C434.367 475.534 426.358 475.783 418.375 476.104C418.077 476.112 417.779 476.156 417.483 476.127C414.56 475.841 408.14 464.554 406.168 461.59Q417.445 460.8 428.739 460.294Z"/>
	<path fill="#FAFBFC" d="M361.608 678.706C367.727 678.818 373.823 678.694 379.947 678.924C379.887 684.33 380.812 690.321 379.333 695.553C378.215 696.77 377.729 696.499 376.125 696.589Q366.09 696.764 356.053 696.835C356.31 691.14 355.868 685.092 356.809 679.484C358.201 678.578 359.999 678.762 361.608 678.706Z"/>
	<path fill="#FAFBFC" d="M490.96 456.289L497.911 455.876Q502.152 463.056 504.98 470.902Q493.442 471.936 481.876 472.57L478.11 472.803C474.97 467.843 472.2 462.65 469.35 457.52C476.494 456.765 483.781 456.597 490.96 456.289Z"/>
	<path fill="#FAFBFC" d="M643.164 671.622C652.115 671.704 661.075 671.591 670.027 671.558C670.03 677.181 670.41 682.845 670.645 688.465Q656.961 688.353 643.279 688.573L643.164 671.622Z"/>
	<path fill="#7EA4BC" d="M550.499 192.583C550.244 183.163 549.228 172.88 550.35 163.558C550.618 166.554 550.682 169.516 550.716 172.521C557.993 171.908 565.738 169.642 572.988 170.068Q570.586 174.555 568.461 179.179C571.036 183.845 574.377 188.328 577.279 192.824Q563.888 192.835 550.499 192.583Z"/>
	<path fill="#56819F" d="M527.909 250.922C532.862 252.496 541.37 259.73 546.286 262.789C560.006 271.327 574.316 278.702 587.598 288.02C579.079 288.407 570.408 288.079 561.871 288.085C550.271 275.939 539.619 263.001 527.909 250.922Z"/>
	<path fill="#FAFBFC" d="M367.104 656.144L393.803 656.124L393.765 674.516L367.211 674.434Q367.718 665.286 367.104 656.144Z"/>
	<path fill="#FAFBFC" d="M363.776 512.684Q378.424 512.385 393.075 512.428C393.105 515.462 393.762 527.791 392.407 529.582L363.165 529.941Q363.42 521.311 363.776 512.684Z"/>
	<path fill="#FAFBFC" d="M536.406 453.25L543.005 452.976L542.765 468.73C531.953 469.924 520.735 470.031 509.862 470.601C507.612 465.531 505.334 460.523 502.771 455.6Q519.563 454.062 536.406 453.25Z"/>
	<path fill="#7EA4BC" d="M500.41 248.587C499.86 250.425 468.108 283.983 463.972 288.512Q450.206 288.318 436.439 288.37L436.608 287.689C457.752 274.52 478.906 261.148 500.41 248.587Z"/>
	<path fill="#FAFBFC" d="M350.548 812.046L384.145 812.037C384.105 817.908 384.498 824.129 383.826 829.951L349.721 830.09Q349.968 821.06 350.548 812.046Z"/>
	<path fill="#FAFBFC" d="M348.489 856.534L380.131 856.469C380.138 862.859 380.546 869.631 379.834 875.973L347.476 875.848Q347.712 866.177 348.489 856.534Z"/>
	<path fill="#FAFBFC" d="M618.658 730.895C633.129 736.639 645.78 746.274 652.089 760.846C654.36 766.091 655.663 771.616 656.276 777.288C657.25 786.305 656.965 795.53 657.002 804.592Q657.185 824.203 657.064 843.815C657.003 852.983 657.813 866.484 656.661 875.218C655.681 876.22 653.984 875.999 652.603 876.043C653.141 857.92 654.017 839.956 653.421 821.797C653.789 809.763 654.847 783.774 651.595 772.67C646.703 755.969 638.558 744.408 623.223 736.103C622.884 736.113 622.545 736.119 622.206 736.132C619.301 736.247 611.027 736.837 609.026 739.013C606.361 739.144 604.805 739.114 602.484 737.682C607.7 734.877 613.046 732.763 618.658 730.895Z"/>
	<path fill="#7EA4BC" d="M521.052 151.578C528.763 151.781 536.488 151.607 544.2 151.517C544.215 161.493 545.161 174.073 543.876 183.705C536.443 184.063 528.962 183.941 521.52 183.966C521.115 173.185 521.115 162.365 521.052 151.578Z"/>
	<path fill="#FAFBFC" d="M366.551 833.992L406.583 834.054C406.637 840.219 406.794 846.447 406.432 852.602Q386.299 852.761 366.165 852.678C366.482 846.465 366.462 840.214 366.551 833.992Z"/>
	<path fill="#FAFBFC" d="M387.972 811.691L430.567 811.734L430.548 830.029L387.962 829.947C387.887 823.859 387.776 817.777 387.972 811.691Z"/>
	<path fill="#7EA4BC" d="M510.296 245.847C511.481 249.019 510.051 282.241 510.055 288.481C497.765 288.5 485.465 288.251 473.175 288.111L472.858 287.46C485.43 273.766 498.371 260.086 510.296 245.847Z"/>
	<path fill="#56819F" d="M516.024 245.946C520.052 249.016 526.374 257.573 530.071 261.741C537.924 270.592 546.779 278.802 553.66 288.442C541.065 288.631 528.446 288.482 515.849 288.486L516.024 245.946Z"/>
	<path fill="#FAFBFC" d="M548.489 441.92C558.843 442.18 569.382 443.585 579.71 444.536L637.435 449.789L672.442 452.707C678.506 453.205 685.377 453.16 691.264 454.628C691.981 456.208 691.652 457.915 691.53 459.598C685.244 459.771 678.879 458.962 672.619 458.416L644.873 456.054Q610.829 453.572 576.862 450.187C568.236 449.389 557.219 449.353 548.932 447.381C548.195 445.828 548.481 443.618 548.489 441.92Z"/>
	<path fill="#FAFBFC" d="M410.513 834.099L455.535 833.957L455.529 852.588Q432.972 852.78 410.415 852.652Q410.414 843.375 410.513 834.099Z"/>
	<path fill="#FAFBFC" d="M384.565 856.501L429.109 856.513L429.003 876.002L384.477 876.011L384.565 856.501Z"/>
	<path fill="#B4CDDE" d="M713.473 889.322C716.976 893.685 720.51 898.059 723.621 902.715Q691.154 903.022 658.686 902.845C647.988 902.852 636.766 903.571 626.128 902.83C627.607 901.714 642.656 902.314 645.554 902.325C650.474 897.531 654.956 893.014 661.123 889.851C665.986 888.972 671.512 889.39 676.455 889.366C688.764 889.309 701.178 889.732 713.473 889.322Z"/>
	<defs>
		<linearGradient id="gradient_0" gradientUnits="userSpaceOnUse" x1="652.54291" y1="806.5174" x2="584.72229" y2="805.78699">
			<stop offset="0" stop-color="#C9D6DD"/>
			<stop offset="1" stop-color="#FCFCFA"/>
		</linearGradient>
	</defs>
	<path fill="url(#gradient_0)" d="M609.026 739.013C611.027 736.837 619.301 736.247 622.206 736.132C622.545 736.119 622.884 736.113 623.223 736.103C638.558 744.408 646.703 755.969 651.595 772.67C654.847 783.774 653.789 809.763 653.421 821.797C652.743 819.677 652.821 817.037 652.517 814.796C651.472 807.083 650.84 798.799 648.465 791.382C648.239 774.843 645.432 761.705 633.215 749.716C628.83 745.413 623.647 741.54 618.088 738.897C604.554 746.716 594.405 752.958 590.175 769.009C586.851 781.619 588.308 796.693 588.295 809.734L588.2 859.199C588.175 864.058 589.482 871.451 587.566 875.828C586.805 876.173 586.189 876.368 585.362 876.493C583.752 868.21 585.492 857.986 585.425 849.446L584.798 803.022C584.639 793.753 583.45 783.174 585.205 774.043C588.135 758.796 596.302 747.609 609.026 739.013Z"/>
	<path fill="#B4CDDE" d="M578.252 876.121C578.145 860.389 578.561 844.624 578.567 828.885C578.573 811.859 576.63 780.002 581.079 764.953C584.513 753.337 591.819 743.558 602.484 737.682C604.805 739.114 606.361 739.144 609.026 739.013C596.302 747.609 588.135 758.796 585.205 774.043C583.45 783.174 584.639 793.753 584.798 803.022L585.425 849.446C585.492 857.986 583.752 868.21 585.362 876.493C583.201 875.903 580.498 876.156 578.252 876.121Z"/>
	<path fill="#56819F" d="M430.655 293.974L594.908 294.552L594.962 301.49L496.339 301.362C474.489 301.401 452.56 301.903 430.718 301.351L430.655 293.974Z"/>
	<path fill="#FAFBFC" d="M536.825 441.712C538.143 441.613 539.942 441.28 541.235 441.467C542.621 441.667 542.733 442.015 543.533 443.063C543.565 444.253 543.608 444.9 542.818 445.912C542.449 446.384 541.889 446.762 541.368 447.037C540.648 447.417 540.018 447.591 539.22 447.679C533.58 448.303 527.507 448.147 521.798 448.519L473.382 451.617L342.25 460.145C340.539 460.403 338.932 460.566 337.458 459.467C336.241 458.559 335.716 457.608 335.484 456.143L336.28 455.116C342.092 452.901 376.688 451.699 386.301 451.064L536.825 441.712Z"/>
	<path fill="#FAFBFC" d="M331.243 882.556C342.266 882.118 353.38 882.292 364.417 882.231L428.279 882.107L572.637 882.147C574.003 884.193 575.191 886.326 576.401 888.466C572.223 889.805 538.612 888.999 531.27 889.009L390.279 888.971C382.175 888.974 330.893 890.02 328.107 889.034C328.947 886.73 330.05 884.686 331.243 882.556Z"/>
	<path fill="#FAFBFC" d="M580.076 882.634C594.021 883.037 607.997 882.679 621.946 882.645Q665.461 882.448 708.974 882.824L713.473 889.322C701.178 889.732 688.764 889.309 676.455 889.366C671.512 889.39 665.986 888.972 661.123 889.851C654.956 893.014 650.474 897.531 645.554 902.325C642.656 902.314 627.607 901.714 626.128 902.83L590.951 902.9L584.194 890.09Q582.108 886.377 580.076 882.634Z"/>
	<path fill="#FAFBFC" d="M515.14 307.434L570.004 307.506C570.015 326.824 570.672 346.42 569.756 365.7L555.008 364.374L554.988 336.375C554.954 332.139 554.95 328.006 551.847 324.719C549.807 322.557 547.169 321.88 544.266 321.875C541.456 321.871 539.08 322.513 537.123 324.631C535.42 326.474 534.536 328.822 534.081 331.256C532.624 339.054 533.793 355.321 533.906 364.136Q524.587 364.572 515.275 365.128C515.426 345.897 515.073 326.666 515.14 307.434Z"/>
	<path fill="#7EA4BC" d="M622.985 748.248C625.089 749.586 627.095 751.384 628.841 753.16C634.298 758.715 638.737 766.256 640.6 773.843C643.381 785.178 642.049 802.252 642.026 814.257L641.848 876.003L622.405 876.103L622.425 793.157C622.451 778.328 621.62 762.985 622.985 748.248Z"/>
	<path fill="#4E7691" d="M593.463 875.983C593.197 856.084 593.445 836.149 593.446 816.245C593.446 804.094 592.599 791.23 594.028 779.171C594.659 773.852 596.004 769.043 598.468 764.266C602.191 757.046 608.355 749.986 616.294 747.503C616.419 757.33 616.773 767.292 616.084 777.105L616.088 875.728C609.608 876.959 600.242 875.985 593.463 875.983Z"/>
	<path fill="#7EA4BC" d="M603.444 875.559L603.473 820.211C603.488 809.442 603.018 798.378 604.063 787.662C605.072 777.318 607.575 768.48 615.929 761.654C615.897 766.803 615.791 771.961 616.084 777.105L616.088 875.728C611.961 875.182 607.604 875.505 603.444 875.559Z"/>
	<path fill="#FAFBFC" d="M469.318 307.246Q489.516 307.058 509.712 307.433L509.528 366.06Q507.998 366.033 506.467 366.025C504.286 366.015 500.905 365.7 499.396 367.661C497.718 369.844 498.523 374.865 498.608 377.488C494.71 380.228 491.805 383.944 488.674 387.495C488.479 373.093 488.966 358.657 489.033 344.25C489.16 338.221 490.484 329.215 486.132 324.467Q485.801 324.103 485.434 323.776Q485.068 323.449 484.669 323.161Q484.27 322.874 483.844 322.629Q483.417 322.385 482.968 322.186Q482.518 321.987 482.051 321.835Q481.583 321.684 481.102 321.582Q480.621 321.48 480.132 321.429Q479.643 321.377 479.152 321.377Q478.638 321.377 478.127 321.428Q477.616 321.478 477.113 321.578Q476.609 321.679 476.118 321.828Q475.627 321.977 475.152 322.174Q474.678 322.371 474.225 322.613Q473.772 322.856 473.346 323.141Q472.919 323.427 472.522 323.753Q472.126 324.079 471.763 324.443Q471.225 324.988 470.77 325.603Q470.316 326.219 469.953 326.893Q469.59 327.567 469.327 328.285Q469.063 329.004 468.905 329.753C467.9 334.344 468.529 339.469 468.527 344.157L468.412 367.131Q460.16 367.655 451.924 368.378L451.783 307.462L469.318 307.246Z"/>
	<path fill="#B4CDDE" d="M576.401 888.466C579.237 893.088 582.085 897.938 584.261 902.912L323.003 903.013C324.655 898.343 326.218 893.614 328.107 889.034C330.893 890.02 382.175 888.974 390.279 888.971L531.27 889.009C538.612 888.999 572.223 889.805 576.401 888.466Z"/>
	<path fill="#FAFBFC" d="M548.647 369.473C560.305 371.414 571.968 372.229 583.74 373.091C583.392 381.319 582.226 403.712 584.453 410.506C587.107 412.541 601.322 412.525 605.401 412.747C606.854 401.504 605.905 386.99 605.991 375.285L638.896 378.851C638.957 391.243 638.468 403.921 639.309 416.274C643.407 416.874 657.174 418.932 660.355 417.098C661.101 412.394 660.674 407.245 660.642 402.481Q660.515 391.458 660.678 380.435C668.235 381.352 675.821 382.044 683.382 382.947C686.073 383.053 688.843 383.645 691.511 384.039L691.58 448.512C671.771 447.339 652.022 445.118 632.265 443.306C617.356 441.939 602.412 440.993 587.498 439.687C574.595 438.556 561.703 436.808 548.751 436.381L548.647 369.473Z"/>
	<path fill="#FAFBFC" d="M535.03 369.792C537.734 369.563 540.472 369.504 543.183 369.379C542.103 391.446 543.062 413.963 543.148 436.072C510.747 436.718 478.197 439.595 445.859 441.677C408.928 444.056 371.853 445.742 335.047 449.644Q334.783 416.361 335.369 383.083C344.997 382.169 358.756 380.224 368.006 380.618L368.211 381.285C367.572 386.574 366.418 412.658 368.882 416.057C374.978 416.972 384.022 415.417 390.343 414.73C390.605 402.73 390.025 390.602 390.114 378.573C400.859 377.196 412.427 376.533 423.265 376.476C423.537 386.351 422.03 403.141 423.828 412.081C423.961 412.739 424.253 412.735 424.784 413.094C427.774 413.433 443.117 412.296 445.729 411.079C447.697 406.235 446.509 381.316 446.474 374.487C457.978 372.907 469.863 372.442 481.451 371.418C481.46 383.902 480.584 397.164 481.91 409.532C489.357 409.753 497.044 408.812 504.472 408.28C504.887 396.085 504.504 383.755 504.479 371.546C514.618 371.409 524.918 370.549 535.03 369.792Z"/>
	<path fill="#B4CDDE" d="M703.418 786.688Q708.829 786.168 714.235 786.738C737.842 789.383 763.151 811.096 770.94 833.288C771.894 836.007 772.63 846.136 773.198 846.847C773.989 847.106 775.379 847.827 776.174 847.16C777.323 846.197 778.384 843.935 779.312 842.641C782.853 837.706 788.106 834.17 793.747 832.053C802.539 828.754 813.373 828.919 821.941 832.843Q822.742 833.212 823.524 833.621Q824.306 834.029 825.067 834.476Q825.827 834.924 826.564 835.409Q827.301 835.893 828.013 836.415Q828.725 836.936 829.41 837.492Q830.095 838.048 830.751 838.638Q831.407 839.228 832.032 839.85Q832.658 840.472 833.251 841.125Q833.845 841.778 834.405 842.459Q834.966 843.141 835.491 843.85Q836.016 844.558 836.505 845.293Q836.994 846.027 837.446 846.785Q837.898 847.543 838.311 848.322Q838.724 849.102 839.097 849.901Q839.471 850.7 839.804 851.517Q840.136 852.334 840.428 853.167C843.012 860.37 843.239 869.862 840.393 877.044C839.343 879.692 837.684 882.126 836.515 884.739C835.818 886.298 835.255 887.631 835.873 889.327C840.017 891.753 849.6 880.761 854.785 879.679C859.512 878.693 864.615 879.364 868.631 882.156Q869.23 882.567 869.783 883.036Q870.337 883.506 870.84 884.029Q871.343 884.553 871.79 885.125Q872.236 885.697 872.623 886.311Q873.009 886.926 873.331 887.577Q873.652 888.227 873.906 888.907Q874.16 889.588 874.343 890.29Q874.526 890.993 874.636 891.71C875.274 896.069 873.943 898.949 871.484 902.425L856.732 902.629L730.956 902.563C724.476 894.816 717.88 885.391 713.453 876.372C711.111 876.193 708.751 876.141 706.404 876.039C705.833 870.93 704.606 850.427 701.317 847.662C700.263 846.775 699.946 846.811 698.682 846.951C698.305 847.312 697.993 847.562 697.748 848.058C695.9 851.806 699.893 870.604 700.818 875.914L684.566 875.911C684.545 862.38 683.808 848.814 683.302 835.291C682.788 821.563 682.485 807.796 681.508 794.093C688.201 789.957 695.673 787.73 703.418 786.688Z"/>
	<path fill="#243F56" d="M818.011 876.308L819.206 876.598C820.037 877.409 820.536 877.729 820.529 878.997C820.509 882.561 814.896 888.373 812.392 890.682C811.515 890.56 811.058 890.344 810.275 889.961C809.529 888.862 809.3 888.611 809.477 887.215C809.958 883.417 815.038 878.537 818.011 876.308Z"/>
	<path fill="#243F56" d="M707.29 814.243C708.285 814.391 709.253 814.633 710.052 815.29C711.514 816.492 712.19 819.748 712.538 821.568C713.128 824.651 713.966 828.786 712.159 831.405C711.272 831.445 710.382 831.405 709.494 831.387C708.096 830.507 707.55 828.918 707.071 827.404C705.883 823.643 705.443 817.774 707.29 814.243Z"/>
	<path fill="#243F56" d="M720.664 805.66C721.451 805.736 722.227 805.939 723 806.102C724.17 807.023 724.613 807.726 724.897 809.165C725.731 813.387 725.613 819.736 723.222 823.386L721.255 823.165C720.017 822.162 719.537 821.303 719.147 819.788C718.04 815.487 718.509 809.53 720.664 805.66Z"/>
	<path fill="#243F56" d="M734.821 813.748C735.39 813.956 736.223 814.197 736.746 814.544C737.659 815.147 737.967 816.154 738.131 817.192C738.811 821.51 737.473 829.152 735.012 832.825C733.913 832.682 733.307 832.423 732.363 831.846C731.116 829.901 731.197 827.138 731.3 824.899C731.47 821.187 731.994 816.345 734.821 813.748Z"/>
	<path fill="#243F56" d="M776.54 867.274C777.355 867.373 778.171 867.552 778.98 867.698C779.965 868.605 780.412 869.065 780.516 870.455C780.831 874.688 778.152 883.563 775.441 886.749L773.728 886.705C772.639 886.077 771.955 885.832 771.578 884.515C770.365 880.281 774.991 871.143 776.54 867.274Z"/>
	<path fill="#243F56" d="M763.404 860.684C763.943 860.943 764.712 861.252 765.192 861.639C766.042 862.323 766.441 863.264 766.62 864.322C767.515 869.615 765.89 882.313 762.707 886.467L760.733 885.921C759.76 884.935 759.384 884.419 759.223 883.01C758.653 878.016 760.311 864.28 763.404 860.684Z"/>
	<path fill="#243F56" d="M810.969 860.355C812.329 860.991 812.972 861.129 813.834 862.389C813.787 863.05 813.809 863.163 813.582 863.894C812.394 867.728 804.455 881.287 801.831 884.768C801.022 885.841 799.991 886.531 798.854 887.216C797.898 886.762 797.28 886.54 796.62 885.674C796.117 885.013 796.149 884.529 796.325 883.713C797.293 879.223 807.266 862.703 810.969 860.355Z"/>
	<path fill="#243F56" d="M734.292 844.182C735.6 844.55 736.48 845.017 737.622 845.719C738.149 846.352 738.437 846.849 738.528 847.684C739.01 852.101 738.637 870.95 737.67 874.946C737.446 875.871 736.842 876.54 736.247 877.25C735.001 877.149 734.141 876.968 732.995 876.466C732.296 875.574 732.12 875.547 731.965 874.353C731.409 870.079 731.931 851.632 732.778 847.081C732.998 845.897 733.578 845.126 734.292 844.182Z"/>
	<path fill="#243F56" d="M796.723 853.254C797.221 853.371 798.193 853.522 798.661 853.806C799.879 854.544 799.915 855.025 800.23 856.306C799.507 859.496 789.467 885.046 787.988 887.222C787.49 887.136 786.745 887.025 786.287 886.853C784.938 886.347 784.677 885.927 784.038 884.744C784.043 878.952 792.775 857.692 796.723 853.254Z"/>
	<path fill="#243F56" d="M716.161 839.761C717.385 839.872 718.502 839.908 719.604 840.516C720.508 841.014 720.947 841.88 721.137 842.873C721.702 845.833 722.817 871.46 722.326 874.31C722.163 875.256 721.576 876.049 721.057 876.828L719.063 876.307C717.861 875.228 717.452 874.299 717.077 872.762C715.875 867.829 713.704 843.768 716.161 839.761Z"/>
	<path fill="#243F56" d="M749.312 841.793C749.892 841.818 750.681 841.795 751.26 841.935C752.725 842.291 752.863 842.617 753.708 843.791C753.953 850.957 752.38 858.563 751.858 865.761C751.516 870.473 751.916 875.513 751.21 880.154C751.065 881.107 750.675 881.775 750.17 882.577C749.193 882.568 748.222 882.503 747.247 882.445C746.301 881.72 746.075 881.568 745.787 880.353C744.308 874.096 746.323 846.94 749.312 841.793Z"/>
	<path fill="#B4CDDE" d="M310.632 763.202C310.771 763.179 310.91 763.151 311.05 763.134C322.523 761.684 337.299 764.346 346.448 771.708C344.672 794.8 343.765 818.151 342.685 841.293C342.153 852.688 342.138 864.293 340.869 875.627C336.915 875.27 333.417 874.821 329.67 876.519C321.537 880.205 319.259 894.813 316.349 902.567L174.625 902.537L155.022 902.56C153.374 898.413 152.157 893.941 151.696 889.497C150.436 877.365 154.988 864.596 162.692 855.268C177.112 837.807 203.719 833.716 224.338 841.088C231.747 843.737 236.144 847.563 242.687 851.16C243.628 851.677 244.547 851.949 245.63 851.765C246.184 851.671 247.11 850.985 247.339 850.471C248.278 848.364 246.788 834.172 246.88 830.515C247.249 815.772 253.764 799.817 263.047 788.476C275.204 773.624 291.615 765.009 310.632 763.202Z"/>
	<path fill="#243F56" d="M332.891 858.909C334.103 859.228 334.703 859.454 335.609 860.33C336.114 861.719 336.289 862.907 336.215 864.393C336.071 867.337 334.978 870.83 332.764 872.825C331.706 872.543 330.992 872.227 330.077 871.626C329.716 870.895 329.447 870.25 329.38 869.426C329.101 865.988 330.595 861.47 332.891 858.909Z"/>
	<path fill="#243F56" d="M311.97 811.942C313.767 812.054 314.493 811.89 315.96 812.988C317.761 816.892 315.876 822.978 314.447 826.856C312.651 826.952 312.165 826.927 310.815 825.783C309.015 821.562 310.656 816.156 311.97 811.942Z"/>
	<path fill="#243F56" d="M236.371 876.232C237.349 876.216 238.667 876.11 239.573 876.516C241.207 877.25 243.077 879.978 243.781 881.577C244.973 884.288 245.712 886.657 244.574 889.454C243.562 889.75 242.772 889.822 241.727 889.918C241.06 889.674 240.535 889.432 240.036 888.908C237.139 885.864 236.306 880.281 236.371 876.232Z"/>
	<path fill="#243F56" d="M282.585 812.247C283.296 812.377 283.908 812.598 284.588 812.839C287.097 816.047 288.711 821.188 288.477 825.249C288.378 826.973 287.491 827.479 286.308 828.533C285.793 828.247 285.515 828.113 285.024 827.736C282.425 825.743 280.361 818.66 280.363 815.497C280.364 813.824 281.452 813.25 282.585 812.247Z"/>
	<path fill="#243F56" d="M181.916 872.835C182.58 873.051 183.192 873.389 183.82 873.694C186.614 877.339 188.76 883.459 188.904 888.008C188.959 889.734 188.151 890.362 187.107 891.575L185.197 890.768C182.842 887.799 179.933 879.406 180.121 875.486C180.2 873.846 180.693 873.754 181.916 872.835Z"/>
	<path fill="#243F56" d="M249.671 868.354C250.732 868.383 251.608 868.48 252.633 868.756C254.871 870.773 256.128 874.52 256.939 877.387C257.936 880.905 259.416 884.599 257.528 887.967C256.534 887.827 255.635 887.78 254.746 887.281C252.331 885.926 250.193 877.113 249.362 874.158C248.617 871.511 248.297 870.82 249.671 868.354Z"/>
	<path fill="#243F56" d="M298.831 796.328C299.574 796.304 300.592 796.182 301.306 796.361C302.237 796.593 302.683 796.877 303.214 797.642C305.983 801.635 302.575 815.526 301.488 820.273C301.139 820.375 300.843 820.476 300.467 820.496C298.942 820.578 298.691 820.398 297.569 819.482C295.745 815.265 297.253 800.945 298.831 796.328Z"/>
	<path fill="#243F56" d="M195.495 865.207C196.133 865.315 196.779 865.529 197.405 865.698C199.946 868.162 206.785 884.036 206.786 887.509C206.786 889.127 206.023 889.646 205.05 890.798C204.327 890.628 203.601 890.365 202.894 890.144C200.279 887.902 194.098 872.302 193.812 868.755C193.679 867.099 194.535 866.399 195.495 865.207Z"/>
	<path fill="#243F56" d="M265.232 857.209C265.721 857.209 266.557 857.193 267.019 857.272C268.283 857.487 269.099 858.102 269.708 859.215C270.901 861.393 273.23 878.52 273.236 881.567C273.238 882.614 272.867 883.508 272.488 884.465C271.664 884.487 270.834 884.402 270.011 884.35C268.815 883.613 268.231 882.752 267.721 881.467C266.019 877.177 263.533 861.296 265.232 857.209Z"/>
	<path fill="#243F56" d="M321.56 846.283C322.254 846.381 323.332 846.458 323.94 846.783C324.547 847.108 325.141 847.595 325.321 848.283C326.179 851.557 320.708 871.474 318.732 874.443L317.059 874.26C315.928 873.377 315.671 873.183 315.32 871.717C314.409 867.902 319.186 849.446 321.56 846.283Z"/>
	<path fill="#243F56" d="M208.834 857.206C209.757 857.416 210.324 857.657 211.157 858.075C213.797 861.308 221.922 882.01 222.012 886.053C222.047 887.597 220.921 888.232 219.92 889.252C219.314 888.971 219.039 888.87 218.511 888.551C215.701 886.855 208.207 865.499 207.441 861.341C207.089 859.436 207.79 858.661 208.834 857.206Z"/>
	<path fill="#243F56" d="M300.082 843.757C300.848 843.886 301.861 844.008 302.54 844.38C303.769 845.053 304.143 846.171 304.312 847.465C304.769 850.956 305.395 877.125 304.485 879.242C304.234 879.826 303.725 880.26 303.346 880.768C302.143 880.62 301.021 880.574 299.997 879.858C299.16 879.272 298.923 878.076 298.782 877.121C297.96 871.538 297.423 851.931 298.429 846.858C298.664 845.668 299.368 844.709 300.082 843.757Z"/>
	<path fill="#243F56" d="M275.959 845.227C276.605 845.249 277.484 845.209 278.083 845.478C279.927 846.307 281.15 849.552 281.862 851.334C284.299 857.431 289.956 874.23 290.329 880.433C290.4 881.62 289.957 882.588 289.501 883.659C288.412 883.666 287.663 883.708 286.626 883.311C285.616 882.924 285.106 882.049 284.69 881.096C282.866 876.925 275.318 852.005 275.128 848.566C275.062 847.387 275.508 846.293 275.959 845.227Z"/>
	<path fill="#FAFBFC" d="M548.017 474.76C556.478 475.573 564.899 476.816 573.377 477.584Q616.709 481.328 660.113 484.113Q663.105 533.894 665.55 583.704C666.624 605.248 668.223 626.96 668.592 648.519C663.114 648.5 627.4 647.97 625.248 649.17C625.115 650.477 624.956 650.831 625.556 651.974C626.451 652.264 627.302 652.577 628.163 652.955C629.27 657.02 628.563 662.566 628.509 666.827C624.213 666.747 619.076 666.213 614.851 667.075C613.795 667.291 614.013 667.302 613.463 668.103C613.556 668.884 613.458 669.57 614.003 670.187C616.205 672.68 634.335 671.435 638.557 671.479Q638.866 680.057 638.997 688.639C635.283 688.794 631.549 688.583 627.848 688.782C625.826 688.89 623.181 688.983 621.722 690.566L621.885 691.546C624.74 693.957 627.514 693.487 631.035 693.432C631.045 697.568 631.809 702.425 630.798 706.396C629.925 706.912 629.079 707.443 628.242 708.016C628.243 709.189 628.452 709.647 629.206 710.579C630.596 712.299 666.949 711.372 671.571 711.349C673.687 737.982 673.797 764.859 674.715 791.556C675.682 819.713 677.418 847.812 677.653 875.997L662.579 876.029Q662.513 847.326 662.782 818.625C662.812 802.635 664.659 778.585 659.721 763.622C652.423 741.51 638.577 733.955 619.067 724.266C608.921 730.598 599.288 730.553 589.38 740.483C581.855 748.025 576.634 758.307 574.237 768.643C571.129 782.048 572.558 798.737 572.557 812.635L572.538 876.007Q560.314 875.915 548.089 875.987C549.284 826.738 548.341 777.279 548.296 728.01L548.017 474.76Z"/>
	<path fill="#243F56" d="M615.989 531.566L616.691 531.54C623.515 531.325 629.957 533.097 634.976 537.961C640.407 543.225 642.24 550.374 642.33 557.706C642.441 566.807 642.019 575.932 641.991 585.037C641.971 591.798 642.499 598.793 641.986 605.515C641.917 606.417 641.792 608.498 641.032 609.084C638.32 611.172 627.836 610.085 624.125 610.036C618.082 610.054 602.275 611.216 597.401 609.386C597.201 608.829 597.1 608.605 596.969 608.063C595.495 601.99 595.827 561.074 596.593 553.051C596.902 549.811 597.213 546.611 598.92 543.769C602.914 537.12 608.52 533.397 615.989 531.566Z"/>
	<path fill="#FAFBFC" d="M616.413 537.547C616.552 537.54 616.691 537.53 616.831 537.526C621.922 537.386 626.879 538.451 630.642 542.102C633.291 544.671 634.935 548.188 635.681 551.769C637.121 558.684 636.315 566.587 636.254 573.645L636.088 604.917L622.105 605.015L602.184 604.918C601.903 594.682 602.052 584.392 601.995 574.148C601.957 567.182 601.406 559.834 602.243 552.933C602.533 550.54 603.119 548.347 604.325 546.249C606.984 541.625 611.371 538.902 616.413 537.547Z"/>
	<path fill="#243F56" d="M616.534 547.041Q617.633 546.972 618.734 546.956C620.997 546.938 622.996 547.695 624.552 549.374C626.18 551.13 627.07 553.352 627.502 555.677C628.326 560.121 627.788 565.225 627.727 569.748L627.451 593.118C625.351 593.285 623.231 593.315 621.125 593.394L609.415 593.471C609.454 584.216 607.577 562.082 609.936 554.465C611.124 550.63 613.032 548.829 616.534 547.041Z"/>
	<path fill="#FAFBFC" d="M539.752 474.724C540.711 474.589 541.318 474.624 542.257 474.861C542.444 475.207 542.724 475.518 542.819 475.9C543.385 478.174 542.637 491.189 542.624 494.339Q542.592 519.254 542.883 544.167L542.983 876.009L433.395 876.069Q433.275 866.352 433.281 856.633L457.388 856.692C460.942 856.717 464.644 857.178 468.179 856.869C469.546 856.749 470.443 856.443 471.567 855.674C472.048 854.507 472.043 854.519 471.671 853.311C468.917 851.705 462.76 852.574 459.488 852.649L459.484 833.682C464.371 833.596 476.913 834.525 480.7 833.004C481.57 831.923 481.504 831.92 481.463 830.522C479.602 828.981 440.14 829.94 434.488 829.993C434.238 823.945 434.4 817.829 434.396 811.773Q446.953 811.807 459.509 811.677C459.471 808.094 459.841 804.444 459.651 800.879C459.541 798.8 459.321 796.323 457.707 794.84L456.693 794.896C453.89 797.842 454.94 804.232 455.023 808L410.38 808.038C410.255 804.366 410.834 793.332 410.224 790.839C409.948 789.711 409.43 789.012 408.769 788.081L407.971 787.953C404.782 791.381 406.066 803.268 406.115 807.837C399.438 807.934 373.167 808.98 368.409 807.624L368.009 806.596L368.41 790.569C372.851 790.581 381.274 791.636 385.077 789.626C385.807 789.24 385.604 789.278 385.923 788.421C385.657 787.66 385.378 787.431 384.82 786.871C377.104 785.326 360.553 786.435 351.995 786.48L355.645 700.969C361.272 700.757 386.32 701.654 389.323 699.084L389.252 698.119C387.971 696.614 386.571 696.599 384.701 696.207C382.905 693.782 384.08 682.222 384.18 678.858C389.743 678.773 395.331 679.012 400.891 678.814C403.276 678.728 405.492 678.668 407.189 676.866C407.098 676.319 407.172 675.708 406.696 675.351C404.683 673.845 399.937 674.472 397.499 674.521L397.801 656.393C402.905 655.958 408.515 656.941 413.482 655.899C414.59 655.667 414.521 655.606 415.145 654.667L414.84 653.298C414.476 653.024 414.166 652.657 413.747 652.476C411.633 651.561 390.832 652.261 386.92 652.256C386.999 647.396 387.598 641.773 386.309 637.085C386.019 636.031 385.856 635.454 384.855 634.928C381.959 639.081 382.977 647.156 383.041 652.094L357.761 652.177C359.624 619.855 360.661 587.422 361.934 555.069L390 554.925C394.066 554.926 398.783 555.492 402.777 554.9C404.242 554.683 404.996 554.195 405.809 552.994L405.544 552.038C402.665 549.63 386.495 550.756 381.999 550.725L382.069 533.82C387.207 533.844 403.387 535.142 407.42 532.602C407.568 531.45 407.624 531.379 407.055 530.381C404.156 529.523 400.105 529.955 397.042 529.937C396.982 524.733 396.332 518.345 397.459 513.305C398.674 512.743 399.559 512.276 400.586 511.389C400.89 510.208 400.972 510.158 400.484 509.058C397.345 507.112 370.17 508.419 364.033 508.465C364.325 500.766 364.828 493.023 364.626 485.32C377.418 484.04 390.361 483.785 403.194 482.901L539.752 474.724Z"/>
	<path fill="#243F56" d="M438.506 689.114C442.46 688.813 446.092 688.978 449.862 690.392C455.279 692.423 459.441 696.72 461.666 702.023Q462.445 703.92 462.919 705.915Q463.393 707.91 463.551 709.955C464.043 716 464.163 764.017 462.964 767.066C458.684 769.149 450.453 768.033 445.669 767.982C438.215 768.042 426.998 769.231 420.036 767.361C419.816 766.913 419.724 766.781 419.611 766.228C418.475 760.695 419.45 753.519 419.452 747.813C419.456 735.095 418.523 721.671 419.778 709.055C420.102 705.8 420.42 702.775 422.228 699.955C426.085 693.941 431.666 690.654 438.506 689.114Z"/>
	<path fill="#FAFBFC" d="M440.648 694.633Q441.52 694.6 442.391 694.654Q443.261 694.708 444.122 694.849Q444.983 694.99 445.826 695.216Q446.669 695.443 447.484 695.752Q448.3 696.061 449.081 696.451Q449.862 696.84 450.6 697.305Q451.338 697.771 452.025 698.307Q452.713 698.844 453.344 699.447C455.799 701.811 456.961 704.583 457.696 707.861C459.285 714.94 458.512 723.158 458.483 730.387L458.331 762.582Q450.791 762.701 443.25 762.651L424.848 762.547Q424.597 746.077 424.554 729.605C424.521 723.432 424.058 716.792 424.866 710.672C425.284 707.505 425.967 704.311 427.812 701.638C430.845 697.242 435.609 695.483 440.648 694.633Z"/>
	<path fill="#243F56" d="M441.292 704.646C443.66 704.91 445.569 705.225 447.326 706.959C449.224 708.832 450.202 711.664 450.585 714.248C451.274 718.901 450.778 724.074 450.719 728.775L450.558 751.458L443.125 751.36C439.583 751.386 436.107 751.423 432.587 750.988C432.666 743.078 431.228 712.148 434.088 707.886C435.799 705.336 438.479 705.084 441.292 704.646Z"/>
	<path fill="#243F56" d="M440.661 531.591C441.19 531.55 441.722 531.526 442.253 531.518C448.425 531.429 454.489 533.588 458.838 538.056Q459.41 538.649 459.939 539.281Q460.468 539.913 460.951 540.58Q461.434 541.248 461.869 541.948Q462.303 542.648 462.687 543.377Q463.071 544.106 463.403 544.861Q463.734 545.615 464.012 546.391Q464.289 547.167 464.512 547.96Q464.734 548.754 464.899 549.561C466.251 556.158 465.501 563.755 465.452 570.478Q465.326 584.389 465.493 598.3C465.509 600.891 466.103 607.412 464.254 609.286C459.331 611.287 451.368 610.126 446.06 610.017Q433.365 610.162 420.669 610.094C419.215 600.712 420.351 590.03 420.371 580.514C420.39 571.11 419.41 560.774 420.64 551.479C421.095 548.038 422.183 544.722 424.064 541.79C427.96 535.715 433.879 533.067 440.661 531.591Z"/>
	<path fill="#FAFBFC" d="M441.956 537.104C442.463 537.074 442.97 537.041 443.477 537.041C447.876 537.043 451.735 539.108 454.739 542.269C456.814 544.453 458.484 547.201 459.13 550.165C460.409 556.043 459.625 563.175 459.599 569.224L459.435 604.432L443.65 604.413L425.95 604.353Q426.031 588.098 425.94 571.844C425.927 565.864 425.494 559.585 426.243 553.665C426.601 550.837 427.344 547.932 428.828 545.472C431.746 540.637 436.697 538.408 441.956 537.104Z"/>
	<path fill="#243F56" d="M441.674 547.003C444.578 547.038 447.199 547.929 449.324 550.001C450.837 551.476 451.473 553.189 451.834 555.241C453.254 563.315 452.077 583.322 451.977 592.649L444.7 592.928L433.485 593.03C433.427 586.077 431.915 557.217 434.357 552.353C435.79 549.495 438.843 548.084 441.674 547.003Z"/>
</svg>
